<svg xmlns="http://www.w3.org/2000/svg" width="90" height="90" viewBox="0 0 60 60">
  <defs>
    <style>
      .cls-1 {
        fill: #b9b106;
        fill-rule: evenodd;
      }
    </style>
  </defs>
  <path id="new_vector_shape_done" class="cls-1" d="M11.206,11.017c9.26-.006,18.589.018,27.875,0.018H47.3a2.588,2.588,0,0,1,1.119.07l0.368,0.053a1.543,1.543,0,0,1,.4.28c0.173,0.119.371,0.169,0.528,0.3a1.832,1.832,0,0,1,.336.578,3.064,3.064,0,0,1,.432.858,6.191,6.191,0,0,1,.048,1.244V40.967a2.867,2.867,0,0,1-.048,1,1.1,1.1,0,0,1-1.087.193H9.208a0.75,0.75,0,0,1-.623-0.052,0.8,0.8,0,0,1-.144-0.648v-26.6a5.733,5.733,0,0,1,.192-2.119c0.071-.149.209-0.262,0.288-0.4A1.713,1.713,0,0,1,9.3,11.7c0.148-.106.344-0.123,0.5-0.228a1.886,1.886,0,0,1,.272-0.228,2.18,2.18,0,0,1,.24-0.035c0.173-.052.354-0.111,0.543-0.158A1.272,1.272,0,0,0,11.206,11.017ZM12.5,14.923a0.745,0.745,0,0,1-.144.035,0.6,0.6,0,0,0-.288.3,2.2,2.2,0,0,0-.032.928V35.362c0,0.639-.016,1.3-0.016,1.909a1.138,1.138,0,0,0,.192.876,1.012,1.012,0,0,0,.687.088H44.868c0.422,0,.883-0.007,1.279.017a0.719,0.719,0,0,0,.671-0.193,1.969,1.969,0,0,0,.112-0.928V16.008a1.255,1.255,0,0,0-.208-0.981,1.309,1.309,0,0,0-.783-0.07H12.932A1.945,1.945,0,0,0,12.5,14.923Zm16.751,2.242a5.994,5.994,0,0,1,1.87.228l0.352,0.053c0.114,0.042.233,0.132,0.352,0.175,0.227,0.083.454,0.146,0.671,0.21a2.642,2.642,0,0,1,.336.07,4.31,4.31,0,0,1,.7.455c0.153,0.109.385,0.1,0.543,0.21s0.266,0.3.416,0.42a6.06,6.06,0,0,1,1.311,1.3l0.3,0.315c0.091,0.133.165,0.27,0.256,0.4,0.111,0.162.3,0.264,0.4,0.438,0.118,0.2.093,0.507,0.208,0.718s0.341,0.361.447,0.6a7.938,7.938,0,0,1,.128.981,3.6,3.6,0,0,0,.24.543l0.192,0.613a3.654,3.654,0,0,1,.1.981v0.525a3.671,3.671,0,0,1-.032,1.191v0.3l-0.048.525a9.808,9.808,0,0,1-.384,1.051l-0.176.858a4.547,4.547,0,0,1-.464.771c-0.1.178-.125,0.386-0.224,0.56s-0.234.3-.336,0.455-0.147.3-.24,0.438a4.372,4.372,0,0,1-.447.49,7.705,7.705,0,0,1-.735.806c-0.171.139-.348,0.236-0.528,0.368-0.15.109-.25,0.3-0.4,0.4s-0.346.136-.5,0.245c-0.074.054-.135,0.154-0.208,0.21l-0.479.263a2.658,2.658,0,0,1-.4.053l-0.655.175a1.769,1.769,0,0,0-.272.175,2.479,2.479,0,0,1-.607.228l-0.751.017c-0.089.021-.242-0.008-0.352,0.018a3.382,3.382,0,0,1-1.454-.053c-0.152-.038-0.283.006-0.416-0.035-0.323-.1-0.608-0.254-0.911-0.35-0.1-.03-0.16,0-0.256-0.035-0.124-.04-0.276-0.1-0.416-0.14a1.563,1.563,0,0,1-.32-0.07,3.071,3.071,0,0,1-.416-0.245c-0.089-.068-0.164-0.18-0.256-0.245-0.154-.11-0.39-0.1-0.543-0.21a3.417,3.417,0,0,1-.3-0.315c-0.154-.145-0.35-0.236-0.511-0.368a3.437,3.437,0,0,1-.32-0.368l-0.432-.42c-0.048-.071-0.079-0.14-0.128-0.21l-0.272-.28c-0.114-.165-0.207-0.338-0.32-0.508a4.21,4.21,0,0,1-.384-0.455c-0.1-.207-0.111-0.481-0.224-0.683a5.093,5.093,0,0,1-.384-0.543c-0.114-.282-0.062-0.668-0.16-0.981-0.092-.292-0.291-0.494-0.384-0.788s-0.016-.644-0.08-0.963a4.885,4.885,0,0,1-.048-1.576c0.017-.088-0.015-0.17,0-0.245,0.045-.223-0.019-0.433.032-0.63,0.061-.236.089-0.5,0.16-0.753s0.184-.483.256-0.718c0.065-.213.058-0.419,0.128-0.63a7.724,7.724,0,0,1,.464-0.928c0.1-.214.128-0.464,0.24-0.666,0.055-.1.127-0.2,0.192-0.3l0.16-.158c0.091-.137.149-0.287,0.24-0.42,0.12-.176.328-0.282,0.447-0.455a5,5,0,0,1,1.135-1.174c0.057-.041.119-0.046,0.176-0.087a5.57,5.57,0,0,1,.416-0.385l0.416-.14a5.1,5.1,0,0,1,.815-0.6,2.421,2.421,0,0,1,.256-0.035c0.135-.037.274-0.1,0.4-0.14s0.21-.025.32-0.07a2.723,2.723,0,0,0,.272-0.175,2.893,2.893,0,0,1,.623-0.175h0.5c0.094-.024.239-0.046,0.336-0.07A1.3,1.3,0,0,0,29.252,17.164ZM31.617,19c-0.014.011-.05,0.024-0.064,0.035a0.132,0.132,0,0,0-.112.105,0.5,0.5,0,0,0,.064.508l0.336,0.333c0.091,0.132.164,0.269,0.256,0.4L32.3,20.6a1.852,1.852,0,0,1,.208.385c0.056,0.148.061,0.3,0.128,0.438,0.1,0.216.322,0.364,0.416,0.6,0.1,0.249.112,0.553,0.224,0.788,0.09,0.19.232,0.356,0.32,0.543l0.128,0.438c0.057,0.208.015,0.411,0.064,0.648a2.442,2.442,0,0,0,.431,1.384,2.047,2.047,0,0,0,1.183.175,3.074,3.074,0,0,0,.7-0.018,1.237,1.237,0,0,0,.511-0.123,0.667,0.667,0,0,0,.176-0.666,2.143,2.143,0,0,0-.16-0.333,3.621,3.621,0,0,1-.224-0.7,5.1,5.1,0,0,0-.128-0.858A5.142,5.142,0,0,0,35.9,22.8c-0.112-.183-0.157-0.4-0.256-0.6a4.638,4.638,0,0,0-.32-0.438c-0.1-.149-0.158-0.309-0.256-0.455a1.514,1.514,0,0,0-.32-0.28c-0.1-.084-0.187-0.214-0.288-0.3l-0.511-.42-0.368-.455a4.186,4.186,0,0,0-.527-0.28c-0.087-.052-0.171-0.152-0.256-0.21a2.13,2.13,0,0,0-.416-0.158A1.809,1.809,0,0,0,31.617,19Zm-4.539.035a3.763,3.763,0,0,1-.4.123,4.583,4.583,0,0,0-.655.438l-0.511.228c-0.15.107-.257,0.288-0.4,0.4-0.161.13-.306,0.255-0.463,0.385-0.11.091-.193,0.241-0.3,0.333a2.531,2.531,0,0,0-.367.35c-0.123.153-.178,0.357-0.288,0.525-0.125.192-.3,0.36-0.415,0.561-0.072.121-.09,0.258-0.16,0.385-0.115.209-.244,0.409-0.368,0.613a4.331,4.331,0,0,0-.224,1.068c-0.072.285-.2,0.539-0.272,0.806a0.639,0.639,0,0,0,.144.561,2.054,2.054,0,0,0,1.215.175,3.131,3.131,0,0,0,.719-0.018,1.5,1.5,0,0,0,.511-0.123c0.412-.281.266-1.254,0.448-1.787,0.1-.282.263-0.529,0.368-0.806,0.091-.24.091-0.522,0.176-0.771a3.823,3.823,0,0,1,.384-0.718c0.13-.228.2-0.5,0.336-0.718,0.115-.183.291-0.333,0.4-0.525,0.079-.14.106-0.308,0.192-0.438a1.242,1.242,0,0,0,.48-0.858,0.343,0.343,0,0,0-.112-0.14A0.734,0.734,0,0,0,27.078,19.039Zm3.293,1.016a0.1,0.1,0,0,1-.064.017,1.154,1.154,0,0,0-.224.28,4.276,4.276,0,0,0-.048,1.314V24.31a4.129,4.129,0,0,0,.08,1.471,0.6,0.6,0,0,0,.591.245A13.391,13.391,0,0,0,32.64,25.9c0.494-.228.185-0.871,0.08-1.279L32.624,24a2.4,2.4,0,0,0-.176-0.508,4.169,4.169,0,0,1-.336-0.543,5.271,5.271,0,0,0-.224-0.771c-0.091-.151-0.256-0.245-0.352-0.385s-0.157-.325-0.256-0.491c-0.082-.138-0.235-0.234-0.32-0.368-0.138-.22-0.178-0.523-0.32-0.736a1.264,1.264,0,0,0-.176-0.14h-0.1Zm-1.886.14a1.213,1.213,0,0,0-.24.228l-0.048.193a2.749,2.749,0,0,1-.256.56c-0.055.082-.152,0.146-0.208,0.228-0.084.123-.127,0.253-0.208,0.385-0.133.217-.322,0.408-0.448,0.63a5.487,5.487,0,0,0-.224.665c-0.1.259-.265,0.487-0.368,0.736a4.157,4.157,0,0,0-.144.666,3.03,3.03,0,0,0-.144,1.244,0.994,0.994,0,0,0,.911.263h0.32c0.59,0,1.273.171,1.454-.315a4.012,4.012,0,0,0,.032-1.191V22.419a7.25,7.25,0,0,1,.032-1.156,0.877,0.877,0,0,0-.016-0.28V20.755A0.524,0.524,0,0,0,28.484,20.194ZM28.2,27.165a1.6,1.6,0,0,1-.527.035c-0.535,0-1.253-.126-1.47.263a0.581,0.581,0,0,0-.048.35c0.067,0.3.121,0.639,0.192,0.963a3.469,3.469,0,0,0,.08.491c0.093,0.242.26,0.436,0.368,0.666,0.12,0.256.122,0.587,0.256,0.823,0.1,0.173.259,0.308,0.368,0.473l0.3,0.6,0.256,0.263a2.345,2.345,0,0,0,.448.876,0.233,0.233,0,0,0,.224.018,0.994,0.994,0,0,0,.288-1.033V31.491a5.691,5.691,0,0,1-.016-0.963V28.619C28.916,27.757,29.072,27.157,28.2,27.165Zm2.3,0a0.809,0.809,0,0,0-.4.263,3.017,3.017,0,0,0-.064,1.174v2.032a6.1,6.1,0,0,1-.016,1.034v0.42c0,0.507.031,1.149,0.464,1.121,0.059-.087.154-0.15,0.208-0.245l0.24-.6c0.107-.178.277-0.312,0.384-0.49,0.088-.148.122-0.323,0.208-0.473l0.448-.631c0.095-.166.137-0.349,0.224-0.525,0.078-.158.2-0.311,0.272-0.473l0.192-.631,0.112-.631c0.055-.2.166-0.375,0.224-0.561a0.76,0.76,0,0,0-.064-0.543,0.808,0.808,0,0,0-.528-0.193,3.736,3.736,0,0,0-.831-0.018C31.186,27.2,30.861,27.164,30.5,27.165Zm-7.512.018a0.659,0.659,0,0,1-.144.017,0.907,0.907,0,0,0-.544.21,0.672,0.672,0,0,0-.08.508c0.091,0.294.241,0.541,0.32,0.876a4.7,4.7,0,0,0,.16,1.086c0.095,0.165.267,0.292,0.368,0.456,0.131,0.212.159,0.507,0.288,0.718,0.081,0.133.218,0.225,0.3,0.35,0.173,0.254.312,0.517,0.5,0.753a3.7,3.7,0,0,0,.687.561c0.092,0.073.178,0.167,0.272,0.245L25.384,33.3c0.17,0.139.369,0.23,0.543,0.368a1.7,1.7,0,0,0,.272.245c0.133,0.065.272,0.051,0.416,0.105a5.133,5.133,0,0,0,.543.21,0.816,0.816,0,0,0,.32-0.035,0.862,0.862,0,0,0,.112-0.122,0.919,0.919,0,0,0-.448-0.928,1.625,1.625,0,0,1-.112-0.21,5.382,5.382,0,0,0-.432-0.6,5.106,5.106,0,0,1-.24-0.613c-0.1-.218-0.3-0.359-0.415-0.56a6.584,6.584,0,0,1-.208-0.981c-0.1-.291-0.314-0.505-0.416-0.806-0.2-.586-0.031-1.685-0.448-2.014A4.514,4.514,0,0,0,22.986,27.183Zm11.764,0a0.437,0.437,0,0,1-.144.035,1.072,1.072,0,0,0-.4.21c-0.389.426-.328,1.557-0.559,2.172-0.1.265-.252,0.5-0.352,0.753l-0.224.858a4.227,4.227,0,0,1-.4.648c-0.081.133-.119,0.277-0.192,0.42a3.252,3.252,0,0,1-.208.3c-0.136.2-.277,0.395-0.416,0.6-0.1.139-.247,0.236-0.336,0.385a0.559,0.559,0,0,0-.048.455,0.376,0.376,0,0,0,.527.158c0.127-.046.271-0.111,0.4-0.158a2.568,2.568,0,0,0,.288-0.07,2.788,2.788,0,0,0,.368-0.28c0.119-.086.266-0.111,0.384-0.193,0.284-.2.467-0.549,0.735-0.771,0.227-.188.415-0.43,0.639-0.613a1.274,1.274,0,0,0,.272-0.245c0.1-.151.173-0.319,0.272-0.473,0.074-.115.186-0.209,0.256-0.333,0.122-.216.181-0.468,0.3-0.683a4.317,4.317,0,0,0,.352-0.561,4.563,4.563,0,0,0,.112-0.6,6.1,6.1,0,0,1,.16-0.718A5.659,5.659,0,0,0,36.8,27.9a0.661,0.661,0,0,0-.1-0.49,0.725,0.725,0,0,0-.528-0.193A6.546,6.546,0,0,0,34.75,27.183ZM1.36,45a1.381,1.381,0,0,1,.32.035H24.233a4.42,4.42,0,0,0,.9-0.035,0.475,0.475,0,0,1,.3.053c0.357,0.171.182,0.481,0.3,0.876a0.658,0.658,0,0,0,.687.473h4.619a7.227,7.227,0,0,0,1.343-.018,2.063,2.063,0,0,0,.5-0.07,0.861,0.861,0,0,0,.368-0.613,0.694,0.694,0,0,1,.224-0.631A0.466,0.466,0,0,1,33.823,45a5.433,5.433,0,0,0,1.1.035H57.271a0.69,0.69,0,0,1,.511.035,2.147,2.147,0,0,1,.176,1.471,2.238,2.238,0,0,1-.24.928c-0.045.075-.131,0.138-0.176,0.21-0.067.109-.091,0.23-0.16,0.333a2.256,2.256,0,0,1-.575.49,2.839,2.839,0,0,1-.4.368,3.227,3.227,0,0,1-.831.087h-0.32a4.292,4.292,0,0,1-.863.017H4.253a4.85,4.85,0,0,1-1.5-.1,1.5,1.5,0,0,1-.416-0.315,1.143,1.143,0,0,0-.208-0.088,1.1,1.1,0,0,1-.559-0.49c-0.054-.116-0.054-0.231-0.112-0.333-0.071-.124-0.186-0.225-0.256-0.35a2.457,2.457,0,0,1-.176-0.666A4.833,4.833,0,0,1,.993,45.7V45.31a0.534,0.534,0,0,1,.272-0.3A0.658,0.658,0,0,0,1.36,45Z"/>
</svg>
