<svg xmlns="http://www.w3.org/2000/svg" width="90" height="90" viewBox="0 0 60 60">
  <defs>
    <style>
      .cls-1 {
        fill: #b9b106;
        fill-rule: evenodd;
      }
    </style>
  </defs>
  <path id="new_vector_shape_done" class="cls-1" d="M12.957,9a1.637,1.637,0,0,1,.336.037h13.95a2.417,2.417,0,0,1,1.2.075,1.469,1.469,0,0,1,.168,1.049v17.9a1.6,1.6,0,0,1-.187,1.161,4.442,4.442,0,0,1-1.475.056H23.266c-0.6,0-1.211.175-1.345-.356V25.947a5.481,5.481,0,0,0-.019-1.03A1.452,1.452,0,0,0,21.753,24a0.322,0.322,0,0,0-.224-0.131,1.268,1.268,0,0,0-.616,0H13.349a1.7,1.7,0,0,1-.542.019c-0.4-.143-0.336-0.532-0.336-1.067v-12.7A2.154,2.154,0,0,1,12.509,9.3a0.5,0.5,0,0,1,.28-0.281A1.445,1.445,0,0,0,12.957,9Zm28.236,1.423a2.049,2.049,0,0,1,.616.112c0.145,0.034.385-.025,0.486,0,0.537,0.134,1.241.289,1.83,0.393,0.357,0.063.882,0.02,1.27,0.112h0.28c0.527,0.12,1.119.058,1.662,0.187h0.411c0.234,0.054.5,0.115,0.71,0.187s0.473,0.069.672,0.131l0.822,0.075c0.634,0.146,1.54.063,2.222,0.225h0.243c0.1,0.024.232,0.037,0.3,0.056H53.2c0.182,0.055.424,0.1,0.6,0.168,0.527,0.194,1.185.134,1.774,0.281,0.114,0.028.282,0,.373,0.019a1.541,1.541,0,0,1,.8.131,0.6,0.6,0,0,1,.205.243v37.3a2.093,2.093,0,0,1-.019.6,0.637,0.637,0,0,1-.261.281,0.858,0.858,0,0,1-.486,0H51.763c-0.587,0-1.286.167-1.475-.262a2.448,2.448,0,0,1-.037-0.786v-1.4a3.247,3.247,0,0,0-.019-0.674q0.009-.29.019-0.581a0.593,0.593,0,0,0-.523-0.393c-0.136-.022-0.538.037-0.784,0.037-0.668,0-1.285-.177-1.438.412q0.009,0.234.019,0.468a3.875,3.875,0,0,0-.019.712v1.423a0.986,0.986,0,0,1-.3,1.049,0.818,0.818,0,0,1-.486,0H42.295c-0.615,0-1.316.172-1.475-.318V11.434a2.014,2.014,0,0,1,.037-0.73A0.7,0.7,0,0,1,41.193,10.423ZM16.9,13.007a0.912,0.912,0,0,0-.392.281,1.924,1.924,0,0,0-.019.543,4.09,4.09,0,0,0,0,1.161,0.348,0.348,0,0,1-.019.15,0.65,0.65,0,0,0,.075.468c0.236,0.352.966,0.187,1.513,0.187a1.788,1.788,0,0,0,.952-0.056,0.708,0.708,0,0,0,.206-0.337q-0.009-.225-0.019-0.449a5.588,5.588,0,0,0,0-1.011,1.236,1.236,0,0,0-.112-0.768,1.072,1.072,0,0,0-.3-0.169l-0.579.019Zm5.4,0a0.83,0.83,0,0,0-.392.318,3.922,3.922,0,0,0-.019.618,5.4,5.4,0,0,0,0,1.03,1.581,1.581,0,0,0,.019.562,0.653,0.653,0,0,0,.261.262,2.367,2.367,0,0,0,.84,0,3.608,3.608,0,0,0,1.4-.056,1.054,1.054,0,0,0,.187-0.88,6.108,6.108,0,0,0-.056-1.629,1.425,1.425,0,0,0-.3-0.206,2.074,2.074,0,0,0-.616,0ZM45.339,15.03a0.771,0.771,0,0,1-.131.019,0.648,0.648,0,0,0-.355.262,1.586,1.586,0,0,0-.037.674,5.181,5.181,0,0,0,.075,1.667c0.2,0.329,1.081.184,1.625,0.187a1.476,1.476,0,0,0,.84-0.075,0.537,0.537,0,0,0,.205-0.431,1.016,1.016,0,0,1-.037-0.356,3.076,3.076,0,0,0,0-1.086c-0.04-.183.069-0.312,0.019-0.468A0.6,0.6,0,0,0,47.3,15.1a0.791,0.791,0,0,0-.3-0.056,1.685,1.685,0,0,0-.3.019A6.211,6.211,0,0,1,45.339,15.03Zm5.378,0c-0.05.031-.126,0.01-0.187,0.038a0.689,0.689,0,0,0-.261.225,1.777,1.777,0,0,0-.056.768,4.344,4.344,0,0,0,.093,1.61,2.406,2.406,0,0,0,1.513.169,1.687,1.687,0,0,0,.934-0.075c0.325-.234.1-0.474,0.187-0.88a2.511,2.511,0,0,0,0-.824,1.241,1.241,0,0,1,.019-0.431A0.539,0.539,0,0,0,52.7,15.1a0.976,0.976,0,0,0-.635-0.037A5.967,5.967,0,0,1,50.717,15.03Zm-33.8,3.389a0.651,0.651,0,0,0-.43.356,2.885,2.885,0,0,0-.019.655,4.093,4.093,0,0,0,.112,1.648A2.313,2.313,0,0,0,18,21.209a1.725,1.725,0,0,0,1.064-.094,1.335,1.335,0,0,0,.131-0.843,3.229,3.229,0,0,0,0-.936,0.874,0.874,0,0,1,.019-0.3,0.594,0.594,0,0,0-.206-0.524,1.01,1.01,0,0,0-.579-0.094A7.638,7.638,0,0,1,16.916,18.419Zm5.36,0a0.8,0.8,0,0,0-.392.356,5.388,5.388,0,0,0,0,.6,5.867,5.867,0,0,0,0,1.03,1.018,1.018,0,0,0,.093.674,2.841,2.841,0,0,0,1.569.131,1.693,1.693,0,0,0,.859-0.056,0.9,0.9,0,0,0,.187-0.824c0.007-.53.118-1.6-0.187-1.817a1.445,1.445,0,0,0-.784-0.056C23.2,18.42,22.711,18.415,22.276,18.419Zm23.063,1.348a1.321,1.321,0,0,1-.149.019,0.694,0.694,0,0,0-.3.206,0.627,0.627,0,0,0-.093.337,0.654,0.654,0,0,1,.037.225,3.814,3.814,0,0,0,0,1.236A0.473,0.473,0,0,1,44.8,22a0.589,0.589,0,0,0,.093.393c0.209,0.308.981,0.187,1.513,0.187a1.822,1.822,0,0,0,.971-0.094,0.544,0.544,0,0,0,.187-0.393,0.946,0.946,0,0,1-.037-0.318,3.182,3.182,0,0,0,0-1.161c-0.035-.149.066-0.269,0.037-0.393a0.676,0.676,0,0,0-.224-0.356,1.206,1.206,0,0,0-.71-0.056C46.157,19.814,45.717,19.766,45.339,19.768Zm5.36,0a0.975,0.975,0,0,0-.429.243,2.069,2.069,0,0,0-.056.768,7.015,7.015,0,0,0,.075,1.61,1.373,1.373,0,0,0,.373.206,2.505,2.505,0,0,0,.6-0.019c0.529,0,1.492.138,1.625-.244a2.779,2.779,0,0,0,.075-0.974,5.174,5.174,0,0,0-.075-1.348,1.578,1.578,0,0,0-1.307-.206C51.256,19.8,50.986,19.767,50.7,19.768Zm-5.248,5.412a1.491,1.491,0,0,1-.243.019,0.624,0.624,0,0,0-.336.244,2.072,2.072,0,0,0-.056.674,4.951,4.951,0,0,0,0,.974,1.327,1.327,0,0,0,.075.712c0.226,0.333,1.088.158,1.625,0.169a1.334,1.334,0,0,0,.859-0.075,0.537,0.537,0,0,0,.187-0.412,0.791,0.791,0,0,1-.037-0.318,2.979,2.979,0,0,0,0-1.086,0.723,0.723,0,0,1,.037-0.356,0.561,0.561,0,0,0-.28-0.487,1.26,1.26,0,0,0-.616-0.019C46.325,25.231,45.8,25.2,45.451,25.179Zm6.8,0a1.138,1.138,0,0,1-.467.037,7.115,7.115,0,0,0-1.251,0c-0.469.187-.32,1.109-0.317,1.685a1.142,1.142,0,0,0,.224,1.03,1.74,1.74,0,0,0,.859.037c0.526-.007,1.345.164,1.569-0.169a1.532,1.532,0,0,0,.075-0.749,3.771,3.771,0,0,0,0-.88,4.161,4.161,0,0,0-.019-0.674A0.693,0.693,0,0,0,52.248,25.179Zm-48.759,1.4a5.231,5.231,0,0,0,1.158.037H17.831a2.89,2.89,0,0,1,1.1.037,1.887,1.887,0,0,1,.224,1.4V49.542a2.307,2.307,0,0,1-.149,1.311,4.118,4.118,0,0,1-1.494.075h-3.7c-0.574,0-1.192.162-1.345-.318v-2.06a3.812,3.812,0,0,0-.019-0.693,2.2,2.2,0,0,0-.093-0.824,0.61,0.61,0,0,0-.467-0.187,3.9,3.9,0,0,0-.523.019c-0.36,0-.857-0.052-1.083-0.019a0.512,0.512,0,0,0-.5.262,2.659,2.659,0,0,0-.056.805,3.813,3.813,0,0,0-.019.693v1.367c0,0.5.029,0.843-.336,0.974a0.806,0.806,0,0,1-.411-0.019H3.844a1.093,1.093,0,0,1-.43.037,0.616,0.616,0,0,1-.3-0.187,2.9,2.9,0,0,1-.093-1.255V28.438c0-.591-0.164-1.759.355-1.816C3.4,26.607,3.467,26.6,3.489,26.584Zm4.034,4.008a0.811,0.811,0,0,0-.448.262,2.552,2.552,0,0,0-.037.693,2.643,2.643,0,0,0,0,.918,1.556,1.556,0,0,0,.093.786c0.192,0.275,1.125.147,1.662,0.15a1.229,1.229,0,0,0,.766-0.075,0.7,0.7,0,0,0,.205-0.318l-0.019-.45c0.005-.289.022-0.637,0.019-0.955a1.654,1.654,0,0,1,0-.375A0.583,0.583,0,0,0,9.577,30.7a1.282,1.282,0,0,0-.784-0.075C8.351,30.637,7.919,30.59,7.523,30.591Zm5.341,0a1.335,1.335,0,0,1-.168.056,0.709,0.709,0,0,0-.28.356q0.009,0.262.019,0.524a2.824,2.824,0,0,0,0,.936q-0.009.271-.019,0.543a0.609,0.609,0,0,0,.392.412,2.248,2.248,0,0,0,.653-0.019c0.576,0,1.381.127,1.606-.187a1.415,1.415,0,0,0,.075-0.693,2.828,2.828,0,0,0,0-.974,5.037,5.037,0,0,0-.019-0.655,1.023,1.023,0,0,0-.28-0.262C14.281,30.605,13.417,30.672,12.864,30.591Zm32.419,0a1,1,0,0,0-.411.243,2.141,2.141,0,0,0-.056.674,2.657,2.657,0,0,0,0,.861,1.836,1.836,0,0,0,.112.88,2.855,2.855,0,0,0,1.587.15,1.509,1.509,0,0,0,.822-0.056,0.7,0.7,0,0,0,.224-0.375l-0.037-.375a3.323,3.323,0,0,0,0-1.124,0.494,0.494,0,0,1,.019-0.187,0.616,0.616,0,0,0-.131-0.543,0.673,0.673,0,0,0-.5-0.15A10.616,10.616,0,0,1,45.283,30.591Zm5.4,0a1.085,1.085,0,0,0-.373.206,4.91,4.91,0,0,0-.093,1.723,1.379,1.379,0,0,0,.093.712c0.2,0.3.995,0.169,1.55,0.169a1.615,1.615,0,0,0,.9-0.075,0.638,0.638,0,0,0,.205-0.393,4.7,4.7,0,0,1-.019-0.543,4.569,4.569,0,0,0,0-.918,1.746,1.746,0,0,0,0-.505,0.735,0.735,0,0,0-.205-0.281,1.316,1.316,0,0,0-.747-0.056C51.5,30.63,51.089,30.588,50.68,30.591Zm-28.4,1.423c0.541,0,1,.038,1.606.038h12.96a1.753,1.753,0,0,1,1.064.075,1.74,1.74,0,0,1,.149,1.067V49.729a1.542,1.542,0,0,1-.205,1.161,5.806,5.806,0,0,1-1.475.038h-3.66c-0.572,0-1.178.167-1.344-.3a2.8,2.8,0,0,1-.019-0.768V48.381a3.215,3.215,0,0,0-.019-0.693,0.526,0.526,0,0,1,.019-0.206,0.614,0.614,0,0,0-.093-0.449,0.661,0.661,0,0,0-.467-0.206c-0.107-.015-0.323.037-0.5,0.037-0.355,0-.932-0.052-1.139-0.019a0.568,0.568,0,0,0-.448.206,2.9,2.9,0,0,0-.075.9,3.492,3.492,0,0,0-.019.656v1.329a2.441,2.441,0,0,1-.019.693c-0.173.457-.762,0.3-1.345,0.3H23.527a3.066,3.066,0,0,1-1.494-.112,2.384,2.384,0,0,1-.112-1.18V33.381a7.856,7.856,0,0,1,0-1.03A0.936,0.936,0,0,1,22.276,32.014ZM7.579,36a1.022,1.022,0,0,1-.168.019,0.627,0.627,0,0,0-.336.262,2.394,2.394,0,0,0-.037.693,2.636,2.636,0,0,0,0,.9,1.711,1.711,0,0,0,.093.786,1.9,1.9,0,0,0,1.27.15,2.222,2.222,0,0,0,1.2-.094,0.606,0.606,0,0,0,.168-0.524,0.811,0.811,0,0,1-.019-0.281,4.344,4.344,0,0,0,0-.974l0.019-.487A0.661,0.661,0,0,0,9.54,36.1a1.23,1.23,0,0,0-.71-0.056A10.984,10.984,0,0,1,7.579,36Zm5.378,0a1.434,1.434,0,0,1-.168.019,0.663,0.663,0,0,0-.3.225,1.66,1.66,0,0,0-.056.712c-0.028.315,0,.713,0,1.03q-0.009.234-.019,0.468a1.226,1.226,0,0,0,.131.225,2.922,2.922,0,0,0,1.513.131,1.7,1.7,0,0,0,.878-0.056,0.533,0.533,0,0,0,.224-0.506,1.006,1.006,0,0,1-.019-0.337,3.275,3.275,0,0,0,0-.974,1.111,1.111,0,0,1,.037-0.393,0.651,0.651,0,0,0-.187-0.412,0.949,0.949,0,0,0-.672-0.112A6.434,6.434,0,0,1,12.957,36ZM26.44,36a1.008,1.008,0,0,0-.43.206,0.625,0.625,0,0,0-.112.356,0.666,0.666,0,0,1,.037.262,3.679,3.679,0,0,0,0,1.2c0.022,0.122-.037.248-0.019,0.337a0.573,0.573,0,0,0,.168.356,0.9,0.9,0,0,0,.635.112c0.447-.087,1.173.015,1.625-0.019a1.106,1.106,0,0,0,.318-0.393q-0.009-.29-0.019-0.581a4.452,4.452,0,0,0,0-.936,1.979,1.979,0,0,0,0-.524,0.678,0.678,0,0,0-.187-0.262,0.9,0.9,0,0,0-.411-0.094,4.266,4.266,0,0,0-.56.019C27.118,36.04,26.766,36.009,26.44,36Zm6.91,0a1.094,1.094,0,0,1-.448.038H32.155a1.206,1.206,0,0,0-.485,0,0.59,0.59,0,0,0-.355.356l0.019,0.468a3.964,3.964,0,0,0,0,1.124,1.031,1.031,0,0,1-.037.356,0.6,0.6,0,0,0,.187.374,1.347,1.347,0,0,0,.84.094h0.84a1.139,1.139,0,0,0,.523.019,0.642,0.642,0,0,0,.336-0.318,2.587,2.587,0,0,0,.019-0.674,4.638,4.638,0,0,0-.093-1.648A0.793,0.793,0,0,0,33.35,36Zm12.1,0a1.176,1.176,0,0,1-.224.019,0.606,0.606,0,0,0-.336.206,2.466,2.466,0,0,0-.075.805,2.708,2.708,0,0,0,0,.88,1.845,1.845,0,0,0,.075.712c0.212,0.324,1.013.187,1.55,0.187a1.686,1.686,0,0,0,.915-0.075,0.562,0.562,0,0,0,.205-0.431,0.879,0.879,0,0,1-.037-0.318,3.685,3.685,0,0,0,0-1.124c-0.044-.2.072-0.315,0.019-0.487a0.664,0.664,0,0,0-.243-0.3,1.2,1.2,0,0,0-.654-0.038H46.329A5.181,5.181,0,0,1,45.451,36Zm5.416,0a1.629,1.629,0,0,1-.261.019,0.625,0.625,0,0,0-.355.281,2.637,2.637,0,0,0-.037.843c-0.008.651-.157,1.529,0.392,1.685a3.007,3.007,0,0,0,.766-0.019c0.621,0,1.554.2,1.569-.431,0.013-.021.019-0.742,0.019-0.861,0-.278-0.018-0.423-0.019-0.674q0.009-.2.019-0.393a0.694,0.694,0,0,0-.261-0.375,1.271,1.271,0,0,0-.691-0.019c-0.047.006-.15-0.019-0.224-0.019A5.523,5.523,0,0,1,50.866,36ZM7.485,41.415a1.054,1.054,0,0,0-.392.244,2.085,2.085,0,0,0-.056.712,2.526,2.526,0,0,0,0,.9,1.922,1.922,0,0,0,.093.805,1.908,1.908,0,0,0,1.326.15A1.892,1.892,0,0,0,9.6,44.13a0.811,0.811,0,0,0,.168-0.3l-0.019-.506a3.313,3.313,0,0,0,0-.955A1.111,1.111,0,0,0,9.6,41.546a0.686,0.686,0,0,0-.467-0.131A10.813,10.813,0,0,1,7.485,41.415Zm5.416,0c-0.057.036-.142,0.022-0.205,0.056a0.761,0.761,0,0,0-.261.3,5.527,5.527,0,0,0,0,.618,2.7,2.7,0,0,0,0,.918q-0.009.262-.019,0.524a0.6,0.6,0,0,0,.392.412l0.28,0.019a8.97,8.97,0,0,1,1.214-.038,1.9,1.9,0,0,0,.336.019,0.6,0.6,0,0,0,.411-0.169,3.608,3.608,0,0,0,.112-1.367,5.23,5.23,0,0,0-.037-0.955c-0.184-.588-1.3-0.167-2-0.337A1.447,1.447,0,0,0,12.9,41.415Zm13.483,0a1.016,1.016,0,0,0-.411.262,1.292,1.292,0,0,0-.037.543,3.5,3.5,0,0,0,0,1.2l-0.037.374a1.056,1.056,0,0,0,.131.281,0.768,0.768,0,0,0,.336.187,0.732,0.732,0,0,0,.355-0.038h0.859a1.5,1.5,0,0,0,.859-0.056,0.736,0.736,0,0,0,.224-0.356q-0.009-.234-0.019-0.468a4.309,4.309,0,0,0,0-.936c-0.1-.426.163-0.657-0.205-0.9a1.018,1.018,0,0,0-.5-0.075c-0.058-.008-0.16.018-0.261,0.019A6.828,6.828,0,0,1,26.384,41.415Zm5.416,0a0.983,0.983,0,0,0-.43.262,2.1,2.1,0,0,0-.037.581,3.957,3.957,0,0,0,0,1.124l-0.019.449c0.017,0.061.057,0.128,0.075,0.206a1.171,1.171,0,0,0,.411.225,2.19,2.19,0,0,0,.579-0.038H33.2a0.9,0.9,0,0,0,.392.038,0.887,0.887,0,0,0,.336-0.169,0.855,0.855,0,0,0,.112-0.637c0-.348,0-0.744,0-1.086a2.257,2.257,0,0,0,0-.6,0.655,0.655,0,0,0-.355-0.337,1.952,1.952,0,0,0-.579.019C32.657,41.453,32.2,41.418,31.8,41.415Zm13.464,0a0.838,0.838,0,0,0-.43.337,2.877,2.877,0,0,0-.019.655,4.428,4.428,0,0,0,.093,1.648c0.22,0.309.971,0.169,1.494,0.169a1.671,1.671,0,0,0,.952-0.075,0.6,0.6,0,0,0,.205-0.393,1.126,1.126,0,0,1-.037-0.374,3.256,3.256,0,0,0,0-1.124,2.577,2.577,0,0,0,0-.524,0.684,0.684,0,0,0-.261-0.262,0.607,0.607,0,0,0-.28-0.037,1.8,1.8,0,0,0-.28.019A7.371,7.371,0,0,1,45.264,41.415Zm5.434,0c-0.041.028-.126,0.027-0.168,0.056-0.4.121-.312,0.568-0.317,1.067a3.434,3.434,0,0,0,0,.6V43.83c0.187,0.6.888,0.393,1.606,0.393a1.855,1.855,0,0,0,.915-0.056,0.7,0.7,0,0,0,.224-0.356q-0.009-.225-0.019-0.45a7.048,7.048,0,0,0,0-.955,1.03,1.03,0,0,0-.187-0.88,1.388,1.388,0,0,0-.8-0.075C51.495,41.457,51.064,41.417,50.7,41.415Z"/>
</svg>
