<svg xmlns="http://www.w3.org/2000/svg" width="90" height="90" viewBox="0 0 60 60">
  <defs>
    <style>
      .cls-1 {
        fill: #b9b106;
        fill-rule: evenodd;
      }
    </style>
  </defs>
  <path id="new_vector_shape_done" class="cls-1" d="M47.776,7a1.307,1.307,0,0,1,.934.376,1.03,1.03,0,0,1,.252.207c0.13,0.188.195,0.416,0.323,0.6,0.072,0.1.2,0.18,0.27,0.282,0.13,0.183.229,0.382,0.359,0.563C50,9.15,50.138,9.246,50.22,9.383l0.216,0.582c0.116,0.2.295,0.364,0.413,0.563,0.09,0.151.125,0.317,0.216,0.47s0.254,0.313.341,0.488c0.12,0.242.136,0.541,0.27,0.77a5.132,5.132,0,0,1,.377.6l0.18,0.563a7.166,7.166,0,0,1,.377.62c0.1,0.28.106,0.6,0.216,0.864,0.1,0.24.312,0.4,0.413,0.639,0.118,0.282.148,0.593,0.252,0.883,0.1,0.274.249,0.533,0.341,0.826,0.064,0.2.053,0.413,0.126,0.62,0.146,0.413.354,0.781,0.5,1.2,0.156,0.44.121,0.983,0.27,1.446,0.1,0.317.3,0.568,0.4,0.9s0.035,0.76.108,1.089q0.027,0.441.054,0.883l0.2,0.958a4.5,4.5,0,0,1-.108,1.615q-0.009.225-.018,0.451c-0.057.264-.084,0.537-0.144,0.789a7.515,7.515,0,0,1-.252,1.446c-0.048.1-.143,0.19-0.2,0.282-0.137.23-.187,0.5-0.306,0.751-0.082.171-.2,0.331-0.287,0.488a7.939,7.939,0,0,0-.341.826,2.311,2.311,0,0,1-.216.3c-0.136.211-.234,0.438-0.377,0.639a1.9,1.9,0,0,1-.2.188c-0.078.081-.137,0.182-0.215,0.263a4.2,4.2,0,0,1-.485.357c-0.136.1-.242,0.273-0.377,0.376s-0.328.156-.485,0.263-0.294.256-.449,0.357a3.87,3.87,0,0,1-.539.225c-0.176.079-.352,0.2-0.521,0.282-0.533.27-.722,0.034-0.88,0.77l0.018,0.826V46.021a1.828,1.828,0,0,0,.09.939,0.747,0.747,0,0,0,.647.169c0.4-.038.868-0.019,1.294-0.019h4.115a3.921,3.921,0,0,1,1.581.113,2.371,2.371,0,0,1,.144,1.427c0,0.48.012,1,.018,1.446a0.9,0.9,0,0,1-.234.826,2.246,2.246,0,0,1-.9.056H4.171a2.027,2.027,0,0,1-.97-0.094c-0.284-.209-0.162-1.137-0.162-1.634V48.162a0.823,0.823,0,0,1,.377-1.052h0.97c0.76,0,1.55.018,2.282,0.019,0.483,0,1.069.138,1.186-.3a0.494,0.494,0,0,0-.4-0.62h-0.5a1.578,1.578,0,0,1-.449-0.169,1.625,1.625,0,0,1-.593-0.977A3.337,3.337,0,0,0,5.7,44.707c-0.067-.115-0.082-0.233-0.144-0.357-0.07-.142-0.178-0.284-0.252-0.432a1.063,1.063,0,0,1-.144-0.732A0.379,0.379,0,0,1,5.41,43.11a6.885,6.885,0,0,0,.952.282,4.2,4.2,0,0,0,1.294.826,0.713,0.713,0,0,0,.162-0.131,1.467,1.467,0,0,0,.018-1.146,1.025,1.025,0,0,0-.557-0.263,1.193,1.193,0,0,1-.413-0.3,4.321,4.321,0,0,1-.629-1.446,2.15,2.15,0,0,1,.18-1.108,3.98,3.98,0,0,1,.2-0.77,1.414,1.414,0,0,1,.234-0.225c0.583-.041.431,0.593,0.9,0.62l0.18-.094c0.205-.183.474-0.756,0.934-0.432a1.078,1.078,0,0,0,.611.544,1.462,1.462,0,0,0,.18-0.15c0.084-.121.116-0.271,0.2-0.394a1.1,1.1,0,0,1,.162-0.132c0.532,0,.547.513,0.665,0.958,0.055,0.209.112,0.453,0.162,0.676a2.115,2.115,0,0,1-.341,1.408,2.726,2.726,0,0,1-.377.6,3.391,3.391,0,0,0-.9.563,2.028,2.028,0,0,0,.036,1.221A0.331,0.331,0,0,0,9.74,44.2l0.2-.225a6.641,6.641,0,0,1,.593-0.526,4.029,4.029,0,0,1,.773-0.169,1.313,1.313,0,0,1,.5-0.15,0.343,0.343,0,0,1,.108.225,0.514,0.514,0,0,1,0,.3,4.475,4.475,0,0,1-.359.695c-0.082.165-.107,0.352-0.2,0.507a4.05,4.05,0,0,0-.252.432,1.387,1.387,0,0,1-.359.639,2.112,2.112,0,0,1-.665.319c-0.407.108-.672-0.1-0.845,0.282a0.451,0.451,0,0,0-.054.263L9.237,46.96a0.819,0.819,0,0,0,.27.188,1.659,1.659,0,0,0,.611-0.019l1.491-.019a1.857,1.857,0,0,0,.862-0.038,0.765,0.765,0,0,0,.27-0.864,5.3,5.3,0,0,1-.018-0.939l0.018-1.953c0-2.689-.018-5.45-0.018-8.169v-2.46a4.761,4.761,0,0,1,.018-1.164,2.713,2.713,0,0,1,.916-1.146,11.035,11.035,0,0,1,1.2-1.127c0.163-.126.271-0.34,0.431-0.469,0.324-.263.587-0.566,0.916-0.826a0.985,0.985,0,0,0,.162-0.207,1.269,1.269,0,0,1,.252-0.225l0.431-.469c0.152-.12.315-0.218,0.467-0.338,0.128-.1.213-0.274,0.341-0.376a2.311,2.311,0,0,0,.359-0.3c0.195-.239.431-0.425,0.629-0.657a1.944,1.944,0,0,1,.234-0.282c0.347-.274.647-0.6,0.988-0.883,0.063-.053.1-0.154,0.162-0.206,0.208-.165.4-0.342,0.611-0.507s0.337-.407.521-0.582A17.828,17.828,0,0,1,22.73,21.7l0.252-.282a4.774,4.774,0,0,1,.467-0.413c0.153-.123.238-0.347,0.4-0.469,0.558-.437,1.012-0.974,1.581-1.408a1.58,1.58,0,0,0,.18-0.225,2.43,2.43,0,0,1,.287-0.244,4.268,4.268,0,0,0,.323-0.394c0.348-.363.767-0.651,1.114-1.014a2.564,2.564,0,0,1,1.15-.9,0.542,0.542,0,0,1,.413.15,3.074,3.074,0,0,1,.521.432l0.252,0.282c0.615,0.486,1.071,1.115,1.689,1.6l0.288,0.338c0.146,0.115.293,0.215,0.431,0.338,0.1,0.089.163,0.236,0.27,0.319a2,2,0,0,1,.449.413,2.42,2.42,0,0,0,.449.413,2.159,2.159,0,0,1,.162.225,3.353,3.353,0,0,0,.413.338c0.183,0.142.3,0.385,0.485,0.526,0.489,0.372.871,0.844,1.348,1.221,0.191,0.151.33,0.394,0.521,0.544,0.439,0.346.828,0.732,1.258,1.089,0.132,0.11.2,0.305,0.341,0.413a2.934,2.934,0,0,1,.557.638c0.089,0.123.24,0.208,0.324,0.338a8.47,8.47,0,0,1,.234,1.822c0.154,0.57.33,1.205,0.521,1.746,0.066,0.188.071,0.366,0.144,0.545,0.1,0.238.282,0.428,0.377,0.657a5.274,5.274,0,0,0,.341.939c0.069,0.1.182,0.181,0.252,0.282,0.1,0.144.169,0.293,0.27,0.432l0.288,0.282A6.283,6.283,0,0,0,42.26,34.04L42.494,34.3a6.045,6.045,0,0,0,.539.3c0.174,0.108.318,0.294,0.485,0.413a1.347,1.347,0,0,1,.7.732,3.636,3.636,0,0,1,.054.958v9.314a2.178,2.178,0,0,0,.018.826c0.2,0.488,1.019.159,1.563,0.282a0.9,0.9,0,0,0,.629-0.113,0.838,0.838,0,0,0,.162-0.676,4.441,4.441,0,0,1-.036-0.826V35.524a1.647,1.647,0,0,0-.09-0.958,1.683,1.683,0,0,0-.755-0.376c-0.123-.057-0.25-0.169-0.377-0.225a4.326,4.326,0,0,1-.593-0.188c-0.158-.1-0.278-0.28-0.431-0.376-0.211-.132-0.451-0.194-0.647-0.338-0.06-.044-0.1-0.124-0.162-0.169-0.13-.1-0.265-0.18-0.4-0.282a2.111,2.111,0,0,1-.341-0.451c-0.1-.141-0.261-0.248-0.359-0.394-0.08-.12-0.12-0.255-0.2-0.376-0.1-.151-0.248-0.274-0.341-0.432-0.139-.234-0.143-0.573-0.288-0.808a3.862,3.862,0,0,1-.341-0.507l-0.2-.676a6.026,6.026,0,0,1-.431-0.695l-0.144-1.2c-0.052-.205-0.094-0.442-0.144-0.676l0.018-.62a6.878,6.878,0,0,1,.09-2.629V22.96l0.162-1.239c0.136-.506.316-0.965,0.449-1.465,0.111-.416.074-0.909,0.216-1.3,0.1-.285.291-0.549,0.4-0.845,0.082-.23.081-0.47,0.162-0.695,0.1-.267.238-0.532,0.341-0.789,0.132-.325.185-0.653,0.323-0.976,0.1-.238.258-0.468,0.359-0.714l0.2-.676a5.179,5.179,0,0,1,.377-0.638,4.788,4.788,0,0,0,.2-0.6c0.1-.245.3-0.434,0.413-0.657s0.127-.516.252-0.732a6.746,6.746,0,0,0,.377-0.582c0.09-.206.109-0.431,0.216-0.62s0.263-.336.377-0.507c0.1-.15.137-0.333,0.234-0.488,0.133-.214.32-0.4,0.449-0.62,0.106-.179.174-0.343,0.287-0.507,0.1-.146.256-0.266,0.359-0.413a2.219,2.219,0,0,1,.4-0.488,2.648,2.648,0,0,1,.521-0.338A1.21,1.21,0,0,0,47.776,7ZM28.408,8.82a1.4,1.4,0,0,1,1.024.714,6.366,6.366,0,0,0,.485.469c0.434,0.454.877,0.9,1.312,1.352a5.092,5.092,0,0,0,.557.47c0.068,0.053.116,0.147,0.18,0.207,0.167,0.155.34,0.29,0.521,0.432a2.554,2.554,0,0,1,.341.413,1.47,1.47,0,0,0,.233.188,2.807,2.807,0,0,1,.377.451c0.077,0.094.2,0.156,0.287,0.244l0.324,0.376a3.628,3.628,0,0,1,.4.338L34.7,14.792c0.1,0.082.227,0.151,0.323,0.244a1.824,1.824,0,0,1,.18.244,1.941,1.941,0,0,0,.377.338,1.972,1.972,0,0,1,.252.319,2.393,2.393,0,0,0,.377.3c0.129,0.1.193,0.293,0.323,0.394a14.692,14.692,0,0,1,1.563,1.484c0.123,0.128.212,0.293,0.341,0.413a2.506,2.506,0,0,1,.359.319,1.482,1.482,0,0,0,.108.169,1.975,1.975,0,0,1,.449.47,1.429,1.429,0,0,1-.018.845c-0.138.5-.264,0.953-0.4,1.446a3.433,3.433,0,0,1-.216.976,1.15,1.15,0,0,1-.162.132,1.52,1.52,0,0,1-.988-0.751,1.975,1.975,0,0,0-.413-0.319,2.5,2.5,0,0,1-.305-0.357,2.34,2.34,0,0,0-.323-0.263,2.185,2.185,0,0,1-.2-0.225,3.5,3.5,0,0,0-.323-0.338,1.463,1.463,0,0,1-.2-0.15,2.4,2.4,0,0,0-.252-0.319,3.322,3.322,0,0,1-.305-0.244,1.987,1.987,0,0,1-.2-0.263,1.986,1.986,0,0,0-.413-0.357,1.279,1.279,0,0,1-.216-0.263,1.838,1.838,0,0,0-.359-0.319,1.759,1.759,0,0,1-.27-0.338,1.547,1.547,0,0,0-.305-0.263,1.5,1.5,0,0,1-.252-0.319,2.07,2.07,0,0,0-.449-0.376c-0.12-.093-0.206-0.245-0.324-0.338-0.2-.155-0.379-0.315-0.575-0.469l-0.252-.282a8.553,8.553,0,0,0-.844-0.826c-0.207-.163-0.352-0.42-0.557-0.582a8.8,8.8,0,0,1-1.006-1,0.8,0.8,0,0,0-.862-0.432,4.444,4.444,0,0,0-1.24,1.07,5.807,5.807,0,0,0-.629.6l-0.144.188c-0.255.2-.432,0.5-0.683,0.695-0.5.393-.9,0.9-1.365,1.333-0.561.521-1.082,1.069-1.653,1.577a2.122,2.122,0,0,0-.252.319,1.579,1.579,0,0,1-.269.225,4.927,4.927,0,0,0-.341.413,8.4,8.4,0,0,1-.844.789L20.5,21.2c-0.319.251-.58,0.538-0.9,0.789-0.113.089-.181,0.243-0.287,0.338-0.317.282-.583,0.6-0.916,0.864a1.68,1.68,0,0,0-.27.338,1.651,1.651,0,0,1-.323.282,5.142,5.142,0,0,0-.377.451,2.759,2.759,0,0,1-.27.207l-0.359.413a2.345,2.345,0,0,1-.216.169,2.837,2.837,0,0,0-.252.319,4.63,4.63,0,0,1-.539.451l-0.324.357c-0.241.19-.442,0.411-0.683,0.6a5.335,5.335,0,0,0-.467.526L14,27.6a6.927,6.927,0,0,1-.719.714c-0.211.166-.363,0.434-0.575,0.6a22.405,22.405,0,0,0-1.653,1.634c-0.331.322-.669,0.625-0.988,0.958-0.221.23-.6,0.9-1.132,0.751a3.069,3.069,0,0,1-1.024-.808c-0.141-.109-0.276-0.207-0.413-0.319C7.388,31.043,7.316,30.9,7.207,30.81a0.641,0.641,0,0,1-.359-0.545c0.046-.062.047-0.159,0.09-0.225l0.2-.188a2.477,2.477,0,0,1,.5-0.488c0.12-.094.193-0.256,0.306-0.357,0.15-.134.315-0.241,0.467-0.376,0.117-.1.182-0.279,0.305-0.376,0.284-.223.515-0.477,0.791-0.695a4.588,4.588,0,0,0,.4-0.469,4.854,4.854,0,0,0,.485-0.451,1.4,1.4,0,0,1,.234-0.282,8.24,8.24,0,0,0,.808-0.77,3.223,3.223,0,0,1,.234-0.282A4.13,4.13,0,0,0,12.2,24.82c0.078-.091.132-0.2,0.215-0.282a3.545,3.545,0,0,1,.359-0.263c0.147-.114.252-0.3,0.4-0.413s0.272-.236.413-0.357c0.1-.087.168-0.234,0.269-0.319a3.362,3.362,0,0,0,.557-0.582,2,2,0,0,1,.377-0.357l0.252-.282c0.175-.182.36-0.347,0.521-0.544a1.222,1.222,0,0,1,.2-0.15l0.2-.225c0.261-.206.49-0.431,0.755-0.639l0.252-.3a8.759,8.759,0,0,1,.916-0.883,1.69,1.69,0,0,0,.287-0.338,1.383,1.383,0,0,1,.27-0.244,2.913,2.913,0,0,0,.359-0.413,2.526,2.526,0,0,1,.377-0.338c0.129-.1.213-0.274,0.341-0.376,0.086-.067.166-0.12,0.252-0.188,0.163-.128.252-0.36,0.413-0.488,0.334-.265.614-0.561,0.952-0.826,0.129-.1.223-0.262,0.341-0.376a15,15,0,0,0,1.042-1.089c0.1-.112.222-0.195,0.323-0.3a7.548,7.548,0,0,1,.755-0.751l0.521-.563c0.221-.231.465-0.421,0.7-0.639,0.458-.423.855-0.926,1.348-1.314l0.521-.563c0.329-.344.677-0.669,1.006-1.014a3.65,3.65,0,0,1,.4-0.451C28.178,8.882,28.314,8.883,28.408,8.82ZM16.783,33.89a0.844,0.844,0,0,0-.305.207,4.273,4.273,0,0,0-.054,1.39v2.986a5.345,5.345,0,0,0,.054,1.483,1.7,1.7,0,0,0,1.311.188h3.2a3.146,3.146,0,0,0,1.24-.056,1.762,1.762,0,0,0,.18-1.277V35.336a1.961,1.961,0,0,0-.18-1.371,4.283,4.283,0,0,0-1.491-.056C19.415,33.909,18.078,33.887,16.783,33.89Zm9.073,0a0.721,0.721,0,0,0-.341.3,1.106,1.106,0,0,0-.018.507v10.46a4.162,4.162,0,0,0,.144,1.859,1.91,1.91,0,0,0,1.024.094h3.881a1.86,1.86,0,0,0,.683-0.019,0.669,0.669,0,0,0,.288-0.713,4.574,4.574,0,0,1-.036-0.845V34.941a1.516,1.516,0,0,0-.072-0.883,2.3,2.3,0,0,0-1.419-.15C28.609,33.909,27.211,33.887,25.857,33.89Zm9.073,0a0.733,0.733,0,0,0-.323.263,5.072,5.072,0,0,0-.018,1.333v2.986a5.94,5.94,0,0,0,.036,1.465c0.193,0.34.837,0.206,1.312,0.206h3.216a2.664,2.664,0,0,0,1.258-.075,1.78,1.78,0,0,0,.144-1.258V35.355a2.029,2.029,0,0,0-.144-1.371,3.872,3.872,0,0,0-1.509-.075C37.573,33.909,36.231,33.887,34.93,33.89Z"/>
</svg>
