<svg xmlns="http://www.w3.org/2000/svg" width="90" height="90" viewBox="0 0 60 60">
  <defs>
    <style>
      .cls-1 {
        fill: #b9b106;
        fill-rule: evenodd;
      }
    </style>
  </defs>
  <path id="new_vector_shape_done" class="cls-1" d="M29.99,9a1.013,1.013,0,0,1,.607.2c0.243,0.134.523,0.2,0.759,0.338,0.125,0.074.2,0.21,0.323,0.287,0.161,0.105.392,0.122,0.569,0.22,0.235,0.129.429,0.324,0.664,0.456,0.158,0.089.371,0.108,0.531,0.2s0.251,0.259.417,0.338c0.256,0.121.522,0.172,0.759,0.3,0.127,0.071.222,0.195,0.341,0.27,0.167,0.106.431,0.105,0.607,0.2,0.2,0.112.346,0.307,0.55,0.422s0.468,0.136.664,0.253c0.116,0.069.183,0.2,0.3,0.27,0.236,0.132.522,0.176,0.759,0.3,0.17,0.092.293,0.247,0.455,0.338s0.377,0.1.531,0.186c0.186,0.108.339,0.277,0.531,0.388s0.464,0.161.664,0.287c0.134,0.085.218,0.225,0.36,0.3,0.265,0.148.555,0.228,0.816,0.371,0.172,0.1.332,0.238,0.512,0.321a3.439,3.439,0,0,1,.341.118c0.124,0.075.21,0.214,0.341,0.287,0.25,0.139.55,0.184,0.8,0.321,0.172,0.095.282,0.26,0.455,0.355L44.1,16.5c0.255,0.137.465,0.349,0.721,0.49l0.493,0.186c0.12,0.067.19,0.2,0.3,0.27,0.224,0.136.517,0.19,0.759,0.3a5.513,5.513,0,0,1,.455.338l0.588,0.186c0.184,0.1.311,0.285,0.493,0.389a2.588,2.588,0,0,0,.341.169,2.634,2.634,0,0,1,.342.1c0.153,0.084.25,0.248,0.4,0.338a7.856,7.856,0,0,0,.8.355,3.148,3.148,0,0,0,.55.287,3.856,3.856,0,0,0,1.157.068,1.3,1.3,0,0,1,.493-0.034,0.477,0.477,0,0,1,.341.3v2.348a0.777,0.777,0,0,1-.209.777c-0.418.2-1.157-.171-1.556,0.084s0.019,0.976-.531,1.132a1.359,1.359,0,0,1-.531-0.034H48.865c-0.552,0-.984-0.07-1.119.338a1.837,1.837,0,0,0,0,.76V41.983a10.027,10.027,0,0,1-.019,1.554V43.96c0,0.72.37,0.642,1.1,0.642h0.74a1.041,1.041,0,0,1,.588.017c0.333,0.189.119,0.528,0.228,0.9a1.324,1.324,0,0,0,.512.675c0.151,0.1.337,0.144,0.493,0.237,0.178,0.105.333,0.265,0.512,0.371s0.407,0.176.607,0.287c0.129,0.072.2,0.211,0.323,0.287,0.145,0.091.341,0.117,0.493,0.2,0.175,0.1.306,0.266,0.474,0.371a2.693,2.693,0,0,1,1.119.845,5.6,5.6,0,0,1,.057,1.52,0.746,0.746,0,0,1-.114.557,1.467,1.467,0,0,1-.91.084H6.127a2.406,2.406,0,0,1-.835,0c-0.4-.177-0.266-0.984-0.266-1.5A1.236,1.236,0,0,1,5.1,48.824a3.771,3.771,0,0,1,.93-0.743c0.12-.067.247-0.1,0.36-0.169s0.192-.2.3-0.27l0.531-.253,0.228-.22c0.133-.087.279-0.136,0.417-0.22,0.183-.111.35-0.272,0.531-0.389a6.336,6.336,0,0,0,.873-0.507,1.3,1.3,0,0,0,.379-0.676c0.088-.347-0.127-0.648.247-0.76a0.9,0.9,0,0,1,.55-0.017h0.512a1.8,1.8,0,0,0,1.214-.152,2.761,2.761,0,0,0,.095-1.368V26.174a5.1,5.1,0,0,0-.019-1.334,1.072,1.072,0,0,0-1.119-.287H10.509a1.419,1.419,0,0,1-.531.034C9.429,24.45,9.842,23.7,9.446,23.455s-1.135.113-1.556-.084a0.767,0.767,0,0,1-.209-0.777V20.229a0.488,0.488,0,0,1,.341-0.287,1.234,1.234,0,0,1,.474.034,5.317,5.317,0,0,0,1.29-.051,1.978,1.978,0,0,0,.588-0.338,4.192,4.192,0,0,1,.436-0.27A2.472,2.472,0,0,0,11.1,19.2c0.109-.069.189-0.189,0.3-0.253,0.15-.084.343-0.088,0.493-0.169s0.353-.171.512-0.27c0.091-.057.167-0.151,0.265-0.2l0.474-.135a4.812,4.812,0,0,0,.531-0.388,2.315,2.315,0,0,1,.379-0.22,2.227,2.227,0,0,0,.323-0.118c0.105-.061.18-0.174,0.284-0.236,0.142-.084.33-0.1,0.474-0.186,0.254-.148.478-0.364,0.74-0.507l0.588-.186c0.18-.1.32-0.267,0.512-0.372,0.209-.114.469-0.152,0.683-0.27,0.14-.078.24-0.223,0.379-0.3s0.289-.1.417-0.169c0.286-.161.562-0.418,0.854-0.557,0.094-.045.177-0.052,0.266-0.1,0.13-.072.215-0.2,0.341-0.27,0.237-.132.56-0.173,0.8-0.3,0.189-.1.336-0.28,0.531-0.371l0.531-.169c0.25-.145.448-0.365,0.7-0.507l0.436-.169c0.125-.069.216-0.207,0.341-0.27s0.287-.067.417-0.135c0.164-.085.368-0.169,0.531-0.27,0.1-.061.187-0.161,0.285-0.22L25,11.683c0.274-.152.516-0.369,0.8-0.524,0.136-.075.308-0.089,0.436-0.169,0.1-.064.179-0.174,0.285-0.236,0.149-.089.345-0.113,0.493-0.2,0.249-.152.468-0.361,0.721-0.507,0.172-.1.436-0.089,0.607-0.186s0.313-.256.493-0.355,0.412-.147.607-0.253c0.088-.048.173-0.124,0.266-0.169S29.91,9.044,29.99,9ZM29.364,14.03l-0.835.1a2.364,2.364,0,0,0-.436.27c-0.191.107-.4,0.171-0.569,0.287a1.708,1.708,0,0,0-.341.473,3.044,3.044,0,0,0-.4.49,2.617,2.617,0,0,0,.019,1.537,1.877,1.877,0,0,0,.265.3c0.126,0.162.192,0.364,0.323,0.524a1.92,1.92,0,0,0,.607.355,3.758,3.758,0,0,0,.474.321,2.771,2.771,0,0,0,1.1.084l0.588-.017a2.207,2.207,0,0,0,.778-0.49,1.908,1.908,0,0,0,.436-0.287c0.122-.146.208-0.3,0.322-0.456a1.6,1.6,0,0,0,.228-0.3,3.125,3.125,0,0,0,.095-0.473v-0.27a1.657,1.657,0,0,0-.076-0.777,3,3,0,0,0-.4-0.54c-0.082-.116-0.122-0.243-0.209-0.355a1.723,1.723,0,0,0-.55-0.355,3.721,3.721,0,0,0-.55-0.338A2.972,2.972,0,0,0,29.364,14.03ZM16.579,24.536a1.039,1.039,0,0,0-.379.22,5.143,5.143,0,0,0-.076,1.537V43.537a1.185,1.185,0,0,0,.209,1,2.047,2.047,0,0,0,.93.068h1.764l0.74,0.017c0.571-.129.417-0.915,0.417-1.537V25.8a2.256,2.256,0,0,0-.095-1.081,1.3,1.3,0,0,0-1.005-.169C18.246,24.553,17.387,24.533,16.579,24.536Zm7.891,0a0.818,0.818,0,0,0-.4.27,1.282,1.282,0,0,0-.038.49V43.368a2.083,2.083,0,0,0,.114,1.1,0.942,0.942,0,0,0,.759.152,4.428,4.428,0,0,1,.721-0.017h1.4l0.645,0.017c0.565-.14.417-0.925,0.417-1.554V25.735a1.655,1.655,0,0,0-.171-1.081,1.592,1.592,0,0,0-.948-0.1C26.138,24.553,25.278,24.533,24.47,24.536Zm7.91,0a0.892,0.892,0,0,0-.4.253,5.681,5.681,0,0,0-.057,1.52V43.537a1.186,1.186,0,0,0,.209,1,2.045,2.045,0,0,0,.93.068h1.764l0.74,0.017c0.6-.136.417-0.927,0.417-1.554V25.82a2.078,2.078,0,0,0-.095-1.1,1.3,1.3,0,0,0-1.005-.169C34.047,24.553,33.189,24.533,32.38,24.536Zm7.91,0a0.893,0.893,0,0,0-.4.236,5.512,5.512,0,0,0-.057,1.486V43.47a1.49,1.49,0,0,0,.171,1.047,1.115,1.115,0,0,0,.721.1,4.429,4.429,0,0,1,.721-0.017h1.4l0.626,0.017c0.565-.137.417-0.912,0.417-1.537v-17.3a1.973,1.973,0,0,0-.133-1.1,1.4,1.4,0,0,0-.967-0.135C41.958,24.553,41.1,24.533,40.29,24.536Z"/>
</svg>
