<svg xmlns="http://www.w3.org/2000/svg" width="90" height="90" viewBox="0 0 60 60">
  <defs>
    <style>
      .cls-1 {
        fill: #b9b106;
        fill-rule: evenodd;
      }
    </style>
  </defs>
  <path id="new_vector_shape_done" class="cls-1" d="M27.589,40.049h0.055a0.175,0.175,0,0,1,.11-0.1,1.282,1.282,0,0,1,.055-0.294,2.923,2.923,0,0,0,0-.359c0.027-.23.054-0.492,0.083-0.7,0.033-.238-0.012-0.547.041-0.816,0.05-.251.109-0.5,0.166-0.735,0.036-.15.028-0.333,0.055-0.473V36.278c0.059-.311.044-0.666,0.1-1,0.015-.092-0.024-0.19,0-0.31,0.057-.287.13-0.638,0.194-0.963q0.014-.359.028-0.718c0.066-.342.037-0.652,0.1-0.963L28.584,32c0.071-.341.11-0.7,0.18-1.078a1.473,1.473,0,0,0-.276-1.045c-0.035-.056-0.1-0.09-0.138-0.147a3.436,3.436,0,0,0-.235-0.392,0.944,0.944,0,0,1-.111-0.1,1.066,1.066,0,0,1-.124-0.7c0.058-.271.179-0.481,0.249-0.718s0.045-.473.111-0.718c0.072-.268.181-0.54,0.249-0.8,0.062-.238.04-0.475,0.11-0.7,0.139-.45.255-1.024,0.387-1.486,0.072-.251.063-0.5,0.138-0.751a10.534,10.534,0,0,0,.277-1.078,1.2,1.2,0,0,0-.028-0.473,2.412,2.412,0,0,0-.3-0.457c-0.139-.225-0.269-0.436-0.415-0.653a1.02,1.02,0,0,1-.235-0.571,3.531,3.531,0,0,1,.5-1.061c0.069-.132.1-0.273,0.166-0.408a2.1,2.1,0,0,1,.152-0.245c0.063-.1.084-0.222,0.138-0.326,0.139-.269.276-0.531,0.415-0.816a2.294,2.294,0,0,0,.442-0.963c-0.029-.034-0.028-0.094-0.055-0.131A2.481,2.481,0,0,0,29.9,15.92a4.477,4.477,0,0,0-.456-0.245c-0.092-.056-0.179-0.149-0.263-0.212a1.332,1.332,0,0,1-.428-0.326,1.181,1.181,0,0,1,.111-0.849c0.054-.168.143-0.346,0.194-0.506s0.049-.316.111-0.473c0.042-.107.115-0.228,0.152-0.343,0.069-.217.082-0.438,0.166-0.637,0.035-.083.094-0.174,0.124-0.261a2.107,2.107,0,0,1,.29-0.816c0.223-.248.58,0.34,0.677,0.49l0.111,0.1c0.171,0.262.381,0.472,0.553,0.735,0.057,0.088.164,0.139,0.221,0.229,0.15,0.237.321,0.444,0.484,0.669,0.038,0.053.114,0.078,0.152,0.131,0.055,0.077.092,0.173,0.152,0.245a14.132,14.132,0,0,1,1.12,1.388c0.055,0.087.193,0.178,0.249,0.261,0.257,0.386.566,0.7,0.816,1.094,0.06,0.094.171,0.155,0.235,0.245,0.18,0.251.358,0.5,0.553,0.735a1.494,1.494,0,0,1,.138.131,1.082,1.082,0,0,0,.055.114c0.314,0.374.626,0.735,0.912,1.143,0.044,0.062.124,0.1,0.166,0.163,0.148,0.227.324,0.408,0.47,0.637a0.688,0.688,0,0,0,.138.131,1.655,1.655,0,0,1,.249.343L37.6,20.491a6.487,6.487,0,0,0,.511.686,2.44,2.44,0,0,1,.263.294,6,6,0,0,0,.65.816,1.449,1.449,0,0,1,.083.163,2.286,2.286,0,0,0,.525.539,2.151,2.151,0,0,0,.76.049h1.535c1.172,0,2.387-.016,3.58-0.016h0.788a1.88,1.88,0,0,0,.415-0.016l0.373,0.033a1.317,1.317,0,0,1,.332-0.065,1.815,1.815,0,0,1,.152-0.2l0.014-.261a1.642,1.642,0,0,1-.069-1.045,0.557,0.557,0,0,1,.525-0.065c0.254,0.074.51,0.139,0.747,0.229a2.506,2.506,0,0,0,.4.033c0.327,0.065.785,0.024,1.106,0.114L50.565,21.8c0.521,0.149.961,0.182,1.493,0.31l0.1-.016c0.284,0.053.521,0.017,0.788,0.065a1.472,1.472,0,0,1,.29,0c0.343,0.108.816,0.165,1.189,0.245s0.8,0.062,1.134.147H55.9c0.121,0.032.274,0.032,0.387,0.065a0.875,0.875,0,0,1,.677.294,0.566,0.566,0,0,1-.014.425c-0.076.177-.133,0.365-0.207,0.555-0.031.079-.1,0.156-0.138,0.229a2.011,2.011,0,0,0-.083.277c-0.093.293-.222,0.547-0.318,0.816-0.027.075-.016,0.139-0.041,0.212-0.135.4-.343,0.8-0.484,1.192-0.031.086-.01,0.134-0.041,0.212-0.071.179-.183,0.372-0.249,0.555s-0.078.335-.138,0.506c-0.054.154-.164,0.294-0.221,0.457a4.062,4.062,0,0,1-.152.522,2.582,2.582,0,0,0-.18.31c-0.054.149-.062,0.313-0.124,0.457s-0.18.292-.235,0.457c-0.045.135-.049,0.261-0.1,0.392-0.072.2-.2,0.38-0.263,0.588-0.048.158-.055,0.282-0.111,0.424-0.023.059-.085,0.11-0.111,0.163-0.107.225-.146,0.48-0.235,0.718-0.06.162-.155,0.349-0.221,0.506-0.1.23-.135,0.465-0.221,0.7-0.051.139-.146,0.281-0.194,0.425s-0.069.289-.124,0.441c-0.073.2-.191,0.379-0.263,0.571a4.069,4.069,0,0,1-.166.522,2.389,2.389,0,0,0-.138.245c-0.066.169-.086,0.352-0.152,0.522-0.057.146-.166,0.282-0.221,0.424-0.067.171-.076,0.339-0.138,0.506-0.051.137-.143,0.255-0.194,0.392-0.061.166-.078,0.326-0.138,0.49-0.1.282-.264,0.586-0.359,0.882l-0.014.131a15.215,15.215,0,0,1-.7,1.437l-0.041.163c-0.055.109-.138,0.221-0.194,0.326-0.073.139-.1,0.294-0.166,0.441s-0.166.27-.235,0.408c-0.058.116-.067,0.243-0.124,0.359-0.025.05-.086,0.1-0.111,0.147-0.094.2-.146,0.422-0.249,0.62-0.056.108-.137,0.216-0.194,0.327a4.11,4.11,0,0,0-.152.424c-0.055.146-.169,0.282-0.235,0.425-0.092.2-.14,0.406-0.235,0.6-0.02.041-.075,0.076-0.1,0.114a3.326,3.326,0,0,0-.152.424,4.479,4.479,0,0,1-.235.425c-0.084.161-.108,0.349-0.194,0.506-0.041.075-.116,0.154-0.152,0.229-0.065.135-.084,0.276-0.152,0.408-0.086.167-.194,0.335-0.276,0.506-0.062.128-.071,0.259-0.138,0.375a1.445,1.445,0,0,1-.18.18L46.542,48a1.051,1.051,0,0,1-.553-0.571,0.878,0.878,0,0,1,.111-0.522c0.262-.454.48-0.972,0.705-1.469,0.292-.647.626-1.282,0.926-1.91,0.046-.1.049-0.2,0.1-0.294s0.136-.2.18-0.294c0.09-.2.135-0.413,0.235-0.6,0.057-.109.14-0.229,0.194-0.343,0.082-.175.12-0.357,0.207-0.523a10.542,10.542,0,0,0,.677-1.437,1.492,1.492,0,0,0,.18-0.588,0.153,0.153,0,0,0-.124-0.049c-0.134.134-.274,0.25-0.415,0.376a3.229,3.229,0,0,0-.249.343c-0.026.031-.069,0.036-0.1,0.065-0.056.059-.093,0.158-0.152,0.212a1.293,1.293,0,0,0-.166.163,6.027,6.027,0,0,1-.76.882,0.991,0.991,0,0,0-.083.147c-0.036.051-.1,0.083-0.138,0.131l-0.041.082a6.885,6.885,0,0,0-.7.816c-0.051.065-.127,0.1-0.18,0.163-0.038.045-.056,0.122-0.1,0.163a2.273,2.273,0,0,0-.359.376,0.787,0.787,0,0,1-.069.13,2.816,2.816,0,0,0-.235.229,1.381,1.381,0,0,1-.18.245,0.721,0.721,0,0,0-.138.114,4.53,4.53,0,0,1-.567.669,0.687,0.687,0,0,1-.608.425,0.368,0.368,0,0,0-.111-0.082,1.2,1.2,0,0,1-.359-0.816,1.354,1.354,0,0,1,.442-0.571c0.056-.05.086-0.143,0.138-0.2,0.308-.309.566-0.688,0.885-0.98a3.131,3.131,0,0,0,.207-0.278q0.333-.391.663-0.784a1.261,1.261,0,0,1,.138-0.114,1.026,1.026,0,0,0,.152-0.212,1.561,1.561,0,0,1,.249-0.245,1.874,1.874,0,0,0,.152-0.229c0.039-.054.109-0.081,0.152-0.131a4.5,4.5,0,0,1,.29-0.375c0.2-.178.344-0.408,0.525-0.6,0.214-.232.412-0.482,0.622-0.718a2.566,2.566,0,0,0,.207-0.212c0.045-.064.075-0.138,0.124-0.2s0.1-.067.138-0.114a3.524,3.524,0,0,1,.346-0.424,0.606,0.606,0,0,0,.124-0.114A2.775,2.775,0,0,1,49.6,37.29c0.038-.038.056-0.11,0.1-0.147a1.047,1.047,0,0,0,.4-0.833c-0.037-.216-0.08-0.414-0.124-0.62-0.04-.187-0.008-0.377-0.055-0.555-0.094-.355-0.193-0.762-0.276-1.143-0.028-.128,0-0.347-0.041-0.522-0.076-.367-0.167-0.742-0.263-1.094l-0.055-.62c-0.131-.506-0.222-1.076-0.332-1.616V29.976c-0.123-.479-0.193-1.055-0.3-1.551a1.08,1.08,0,0,0-.194-0.62,1.318,1.318,0,0,0-1.037.049c-0.353.126-.811,0.114-1.161,0.212l-0.746.033c-0.131.035-.279,0.033-0.415,0.082-0.183.065-.364,0.139-0.581,0.2l-0.525.016a1.686,1.686,0,0,1-1.12.016,1.54,1.54,0,0,1-.069-1.028,2.461,2.461,0,0,1,1.009-.392,2.543,2.543,0,0,0,.387,0c0.272-.075.678-0.047,0.982-0.131l0.3-.016c0.314-.085.642-0.118,0.981-0.212H46.68a4.049,4.049,0,0,0,1.368-.261,0.625,0.625,0,0,0,.124-0.229c0.021-.078-0.014-0.186.014-0.245a2.549,2.549,0,0,0-.069-0.424,1.97,1.97,0,0,0-.276-1.045,3.532,3.532,0,0,0-1.507-.114H42.547a3.8,3.8,0,0,0-1.6.114,0.594,0.594,0,0,0-.014.245,0.489,0.489,0,0,1,.069.147c0.025,0.044.082,0.073,0.111,0.114a1.451,1.451,0,0,0,.111.18c0.437,0.461.823,0.99,1.23,1.486a0.409,0.409,0,0,1-.028.261,1.261,1.261,0,0,1-.733.033c-0.467-.123-0.986-0.02-1.41-0.131H40.072a0.451,0.451,0,0,0-.525.343,3.944,3.944,0,0,0-.028.653c-0.023.21-.053,0.605-0.055,0.865a8.673,8.673,0,0,1-.014.931l-0.014.669c-0.112.6-.08,1.254-0.194,1.861v0.441a5.846,5.846,0,0,1-.055.9v0.343c-0.039.208-.015,0.5-0.055,0.718a0.962,0.962,0,0,0,.014.278,3.415,3.415,0,0,0-.014.539c-0.014.131-.011,0.383-0.041,0.539q-0.007.294-.014,0.588c-0.066.343-.07,0.715-0.138,1.077V37.96c-0.072.428,0,1.064-.083,1.486v0.278a1.6,1.6,0,0,1-.028.261V40.49a5.1,5.1,0,0,0-.028.767v0.31c-0.07.368-.071,0.775-0.138,1.126a4.307,4.307,0,0,0-.028.784v0.277c-0.04.214,0.016,0.4-.028,0.637l-0.1,1.535a5.825,5.825,0,0,1-.041,1.273,0.786,0.786,0,0,1-.788.163H37.432c-0.373-.078-0.863-0.049-1.286-0.163-0.123-.033-0.26-0.007-0.359-0.033H35.524c-0.105-.029-0.3-0.035-0.4-0.065H34.888c-0.067-.016-0.2-0.02-0.276-0.033H34.418c-0.36-.108-0.875-0.019-1.3-0.131h-0.29c-0.211-.055-0.443-0.015-0.636-0.065H31.944c-0.344-.091-0.761-0.09-1.12-0.147a5.058,5.058,0,0,1-.526-0.033,3.7,3.7,0,0,0-.539,0,6.228,6.228,0,0,1-.885-0.147c-0.208-.057-0.391-0.011-0.594-0.065H28.018a3.9,3.9,0,0,1-.581-0.016,3.407,3.407,0,0,0-1.064-.033c-0.488.114-1.142-.019-1.59,0.1l-0.4.016c-0.23.061-.529,0.068-0.76,0.131a4.1,4.1,0,0,1-.5,0,2.46,2.46,0,0,1-.719.033,0.527,0.527,0,0,0-.194.033H21.963c-0.1.025-.24,0.03-0.332,0.049a3.564,3.564,0,0,0-.484.016c-0.245.066-.576,0.051-0.843,0.1l-0.083-.016a1.956,1.956,0,0,1-.512.033c-0.235-.033-0.53.087-0.746,0.049a0.66,0.66,0,0,0-.152.033H18.465a0.815,0.815,0,0,1-.567,0,2.37,2.37,0,0,1-.207-1.371,2.317,2.317,0,0,0,0-.375c-0.035-.2.038-0.6-0.014-0.882-0.11-.583-0.079-1.189-0.194-1.779-0.03-.153,0-0.321-0.028-0.457V41.861a5.547,5.547,0,0,0-.014-0.653V40.849a5.919,5.919,0,0,0-.041-0.882V39.559c-0.076-.454.016-1.213-0.055-1.665V37.535c-0.024-.127,0-0.328-0.027-0.49-0.067-.355-0.087-0.7-0.152-1.045-0.048-.256,0-0.543-0.041-0.784V34.564a5.556,5.556,0,0,0-.028-0.686c-0.025-.2.01-0.522-0.028-0.735a0.659,0.659,0,0,1,.014-0.131c-0.028-.343.006-0.817-0.055-1.143-0.055-.3.056-0.691,0-1.012-0.015-.084.013-0.252-0.014-0.392-0.065-.344-0.078-0.718-0.138-1.028l-0.014-.392c-0.1-.549.029-1.3-0.069-1.828V26.842a1.325,1.325,0,0,0-.1-0.343,0.535,0.535,0,0,0-.456-0.163A0.965,0.965,0,0,1,16,26.4a2.881,2.881,0,0,0-.622.065c-0.137.026-.361,0.008-0.511,0.033l-0.083-.016a1.574,1.574,0,0,1-.622.049,1.328,1.328,0,0,1-.235-0.163,0.531,0.531,0,0,0,.014-0.147,1.134,1.134,0,0,0,.235-0.343c0.153-.2.322-0.409,0.484-0.6,0.251-.3.493-0.615,0.746-0.914a7.3,7.3,0,0,0,.622-0.767c0.058-.091.159-0.143,0.221-0.229,0.164-.224.339-0.422,0.5-0.653,0.076-.111.2-0.182,0.276-0.294,0.36-.532.818-0.954,1.175-1.486a1.774,1.774,0,0,1,.152-0.147l0.263-.343,0.1-.082c0.2-.311.438-0.6,0.664-0.882a1.37,1.37,0,0,0,.111-0.1,3.6,3.6,0,0,1,.276-0.376l0.111-.1a9.032,9.032,0,0,1,.774-0.947c0.926-1.117,1.817-2.272,2.751-3.379a5.39,5.39,0,0,0,.428-0.555c0.1-.159.272-0.266,0.373-0.425a3.585,3.585,0,0,1,.249-0.359c0.4-.477.8-0.947,1.2-1.42a1.886,1.886,0,0,1,.76-0.816,0.45,0.45,0,0,0,.111.082,3.365,3.365,0,0,1-.221,1.29c-0.048.191-.036,0.34-0.083,0.539-0.057.243-.115,0.518-0.18,0.735-0.034.113-.014,0.206-0.041,0.326a1.671,1.671,0,0,0-.069,1.094,1.107,1.107,0,0,0,.677.359c0.149,0.058.286,0.164,0.429,0.228a1.473,1.473,0,0,1,.346.147,1.068,1.068,0,0,1,.111.18,1.911,1.911,0,0,1-.3.9c-0.041.127-.039,0.238-0.083,0.359-0.036.1-.111,0.2-0.152,0.294-0.081.183-.109,0.376-0.18,0.571a1.789,1.789,0,0,1-.111.2l-0.014.1c-0.08.184-.137,0.376-0.207,0.588a8.934,8.934,0,0,0-.359.947,0.569,0.569,0,0,0,.207.555c0.048,0.057.076,0.139,0.124,0.2,0.1,0.119.236,0.2,0.332,0.326a1.957,1.957,0,0,0,.138.2,1.027,1.027,0,0,1,.359.506v0.408c-0.041.265-.044,0.784-0.111,1.094l-0.041.669c-0.074.326-.154,0.619-0.221,0.963-0.036.187,0.013,0.425-.014,0.571-0.043.234-.05,0.523-0.1,0.767-0.033.172,0,.316-0.041,0.473-0.032.108-.1,0.256-0.124,0.376l-0.069.947a2.531,2.531,0,0,0-.083.653,1.377,1.377,0,0,0,.511.849c0.078,0.073.12,0.213,0.194,0.294a1.557,1.557,0,0,0,.138.1,1.009,1.009,0,0,1,.263.523,2.569,2.569,0,0,1-.014.62v0.294a6.413,6.413,0,0,1-.014.98l0.014,0.2a7.621,7.621,0,0,0-.014,1.029c-0.006.347-.028,0.706-0.028,1.11a5.436,5.436,0,0,1-.028.931v0.278a3.334,3.334,0,0,1-.028.392c-0.064.407,0.006,0.8-.069,1.094a0.9,0.9,0,0,1-.055.359V37.519a3.44,3.44,0,0,1-.028-0.425,3.167,3.167,0,0,0-.276-1.453,1.7,1.7,0,0,0-1.009,0c-0.369.1-.765,0.03-1.147,0.131-0.207.055-.434-0.017-0.622,0.033s-0.394-.013-0.567.033a1.932,1.932,0,0,0-.663.082,0.345,0.345,0,0,0-.166.2,1.968,1.968,0,0,0-.014.784c0.043,0.23-.009.671,0.028,0.882a2.693,2.693,0,0,1,0,.294c0.052,0.454.053,0.889,0.138,1.306a1.1,1.1,0,0,0,.138.555,0.909,0.909,0,0,0,.76.1h0.332a2.365,2.365,0,0,0,.318-0.016c0.29-.076.594-0.086,0.871-0.163H25.64c0.124-.034.3-0.036,0.4-0.065l0.76-.016a1.529,1.529,0,0,0,.18-0.016,1.083,1.083,0,0,1,.373-0.1A1.283,1.283,0,0,1,27.589,40.049ZM6.673,13.21a2.035,2.035,0,0,1,.553.016,3.1,3.1,0,0,1,.47.212c0.162,0.081.32,0.1,0.47,0.2a2.332,2.332,0,0,1,.276.278,2.448,2.448,0,0,1,.484.555L9,14.532c0.052,0.09.073,0.184,0.124,0.277a3.06,3.06,0,0,1,.263.506,4.329,4.329,0,0,1,.1.6,4.892,4.892,0,0,1-.111,2.155A3.439,3.439,0,0,1,7.89,19.887a3.943,3.943,0,0,1-.8.212,1,1,0,0,1-.373-0.016,2.061,2.061,0,0,1-.263-0.016,3.629,3.629,0,0,1-.553-0.18,1.955,1.955,0,0,1-.207-0.163A3.547,3.547,0,0,1,5.25,19.43a1.646,1.646,0,0,1-.207-0.294c-0.054-.08-0.157-0.127-0.207-0.212a5.279,5.279,0,0,1-.512-1.159L4.309,17.6C4.3,17.549,4.254,17.471,4.24,17.422a4.519,4.519,0,0,1-.028-1.274c0.036-.188.056-0.371,0.111-0.555a3.391,3.391,0,0,1,1.023-1.681,2.553,2.553,0,0,1,.276-0.278c0.132-.081.27-0.093,0.415-0.163,0.089-.043.185-0.124,0.276-0.163A3.406,3.406,0,0,0,6.673,13.21Zm44.942,0.882a2.718,2.718,0,0,1,2.364,1.469,2.978,2.978,0,0,1,.249.392c0.065,0.173.074,0.352,0.138,0.539a6.672,6.672,0,0,1,.221.735,3.112,3.112,0,0,1-.152,1.535c-0.084.261-.1,0.53-0.207,0.767a2.723,2.723,0,0,1-.18.261,3.67,3.67,0,0,1-.207.408,2.919,2.919,0,0,1-1.686,1.11,2.353,2.353,0,0,1-.8-0.033c-0.106-.034-0.2,0-0.29-0.033A3.344,3.344,0,0,1,49,19.006a3.6,3.6,0,0,1-.083-0.571,2.936,2.936,0,0,1-.055-1.208c0.053-.223.072-0.511,0.138-0.735a3.422,3.422,0,0,1,1.134-1.747,2.166,2.166,0,0,1,.346-0.294,5.579,5.579,0,0,1,.76-0.294A1.4,1.4,0,0,0,51.615,14.092ZM5.9,20.736a0.462,0.462,0,0,1,.152.082,0.88,0.88,0,0,0,.1.245,1.477,1.477,0,0,0,.581,1.029c0.223,0.077.536,0,.774,0.065H7.738c0.281,0.073.66,0.128,0.968,0.212l0.277,0.016c0.242,0.065.543,0.058,0.774,0.131h0.18c0.282,0.075.688,0.015,0.981,0.1h0.138a5.453,5.453,0,0,0,.677.2l0.083-.016c0.206,0.047.38,0.027,0.581,0.082l0.318,0.016c0.391,0.1.8,0.033,1.161,0.147H14.1a0.826,0.826,0,0,1,.484.229,1.079,1.079,0,0,1,.1.686,0.974,0.974,0,0,1-.332.359,1.264,1.264,0,0,1-.553-0.049,3.651,3.651,0,0,1-.442-0.016c-0.159-.05-0.442-0.067-0.622-0.131H12.562c-0.227-.082-0.588-0.094-0.843-0.163-0.168-.045-0.351-0.014-0.5-0.065H10.986c-0.109-.029-0.275-0.035-0.387-0.065l-0.456-.033c-0.1-.026-0.228-0.041-0.318-0.065H9.659a0.444,0.444,0,0,1-.083-0.065,1.149,1.149,0,0,0-.567-0.033,0.619,0.619,0,0,0-.042.1c0.012,0.028.012,0.1,0.028,0.147a5.766,5.766,0,0,0,.636.359c0.21,0.094.449,0.093,0.664,0.18,0.125,0.05.247,0.177,0.359,0.228,0.191,0.088.393,0.058,0.595,0.131,0.149,0.053.3,0.171,0.429,0.229a3.69,3.69,0,0,0,.4.131L12.3,25.16a4.341,4.341,0,0,1,.484.245,2.256,2.256,0,0,0,.387.1,0.593,0.593,0,0,1,.428.7,0.685,0.685,0,0,1-.055.229,0.746,0.746,0,0,1-.29.326,1.342,1.342,0,0,1-.8-0.229c-0.172-.074-0.331-0.071-0.5-0.147-0.135-.062-0.326-0.135-0.47-0.2-0.078-.033-0.146-0.016-0.221-0.049-0.143-.062-0.3-0.151-0.442-0.212-0.175-.078-0.352-0.053-0.525-0.131s-0.378-.2-0.567-0.277c-0.158-.061-0.3-0.034-0.456-0.1-0.194-.083-0.392-0.207-0.594-0.294-0.139-.06-0.28-0.043-0.429-0.1A0.847,0.847,0,0,0,7.876,24.9c-0.029.008-.061,0.038-0.1,0.049a0.864,0.864,0,0,0-.014.212A2.932,2.932,0,0,1,7.9,25.6c0.089,0.248.233,0.477,0.332,0.7,0.064,0.146.073,0.308,0.138,0.457s0.159,0.325.235,0.473c0.065,0.128.066,0.292,0.124,0.425,0.275,0.623.531,1.261,0.76,1.943,0.068,0.2.206,0.384,0.276,0.588a3.262,3.262,0,0,0,.166.506,2.168,2.168,0,0,1,.18.343,3.278,3.278,0,0,0,.138.457c0.039,0.077.116,0.152,0.152,0.229,0.075,0.157.081,0.34,0.152,0.506s0.193,0.329.263,0.506c0.058,0.145.059,0.292,0.125,0.424a5.034,5.034,0,0,1,.249.523c0.04,0.112.038,0.2,0.083,0.31,0.1,0.224.219,0.468,0.3,0.7,0.061,0.168.1,0.334,0.166,0.49a1.529,1.529,0,0,1,.263.767c-0.09.374-.71,0.264-1.009,0.326-0.169.035-.322,0-0.373,0.163a0.536,0.536,0,0,0,.028.408c0.127,0.268.325,0.5,0.47,0.751,0.089,0.152.151,0.305,0.249,0.441a3.915,3.915,0,0,1,.235.441c0.087,0.161.223,0.3,0.3,0.457,0.054,0.107.083,0.2,0.138,0.31s0.142,0.173.194,0.261c0.077,0.133.118,0.274,0.194,0.408,0.043,0.077.121,0.136,0.166,0.212,0.224,0.375.429,0.749,0.65,1.127,0.121,0.208.246,0.427,0.373,0.637a1.836,1.836,0,0,1,.29.555q-0.007.139-.014,0.278a1.1,1.1,0,0,0-.111.2,0.712,0.712,0,0,1-.553.294,9.771,9.771,0,0,1-1.023-1.649c-0.031-.053-0.093-0.1-0.124-0.147-0.1-.157-0.157-0.329-0.249-0.49-0.066-.117-0.169-0.226-0.235-0.343-0.048-.085-0.06-0.181-0.111-0.261s-0.139-.171-0.194-0.261c-0.186-.312-0.329-0.632-0.511-0.947-0.044-.076-0.12-0.14-0.166-0.212s-0.057-.141-0.1-0.212c-0.085-.15-0.2-0.293-0.29-0.441-0.191-.322-0.384-0.642-0.567-0.963a3.564,3.564,0,0,0-.29-0.506,1.068,1.068,0,0,0-.968-0.065,1.756,1.756,0,0,0-.249.033,0.642,0.642,0,0,0-.193.228,0.985,0.985,0,0,0,.249.735L8.3,37.8c0.043,0.075.056,0.154,0.1,0.229,0.051,0.095.139,0.173,0.194,0.261,0.079,0.128.123,0.273,0.193,0.408,0.028,0.054.092,0.1,0.124,0.147C9,38.972,9.036,39.128,9.12,39.266s0.187,0.259.263,0.392,0.108,0.254.18,0.375c0.034,0.059.1,0.1,0.138,0.163,0.048,0.079.066,0.161,0.111,0.245C9.885,40.58,10,40.7,10.074,40.833s0.119,0.264.194,0.392c0.034,0.059.1,0.105,0.138,0.163,0.074,0.121.12,0.252,0.193,0.376,0.283,0.476.584,0.962,0.871,1.437a4.869,4.869,0,0,0,.235.457,1.149,1.149,0,0,1,.277.457,0.735,0.735,0,0,1-.387.7,0.269,0.269,0,0,1-.276.049,1.285,1.285,0,0,1-.484-0.669c-0.076-.14-0.194-0.272-0.277-0.408C10.5,43.7,10.475,43.6,10.42,43.51l-0.1-.1c-0.085-.143-0.138-0.294-0.221-0.441-0.048-.086-0.129-0.163-0.18-0.245C9.839,42.591,9.8,42.441,9.715,42.3c-0.037-.062-0.113-0.116-0.152-0.18-0.079-.13-0.121-0.267-0.194-0.408-0.031-.06-0.1-0.121-0.138-0.18-0.1-.159-0.163-0.314-0.249-0.49-0.049-.1-0.153-0.181-0.207-0.277-0.069-.123-0.109-0.256-0.18-0.376s-0.16-.2-0.221-0.31C8.327,40,8.312,39.9,8.263,39.821S8.139,39.7,8.1,39.625c-0.06-.1-0.089-0.244-0.152-0.343-0.05-.079-0.131-0.148-0.18-0.228-0.076-.125-0.12-0.264-0.194-0.392-0.034-.059-0.1-0.106-0.138-0.163-0.1-.174-0.174-0.361-0.277-0.539-0.039-.068-0.113-0.129-0.152-0.2a1.87,1.87,0,0,0-.442-0.637,1.359,1.359,0,0,0-1.051.18c-0.115.042-.214,0-0.346,0.033-0.273.071-.59,0.061-0.843,0.13H4.074c-0.144.04-.314,0.037-0.47,0.082a1.132,1.132,0,0,1-.5.1L3,37.47a5.066,5.066,0,0,1,.249-1.388V35.919a4.171,4.171,0,0,0,.083-0.751c0.1-.351.174-0.737,0.249-1.11v-0.2c0.041-.194.036-0.423,0.083-0.637,0.1-.479.173-0.984,0.276-1.485V31.576c0.032-.154.062-0.36,0.1-0.522l0.014-.212c0.2-.72.236-1.582,0.4-2.318,0.039-.175.015-0.388,0.041-0.522,0.087-.442.166-0.885,0.263-1.322,0.067-.3.009-0.581,0.083-0.882,0.108-.437.207-0.993,0.276-1.4l0.042-.522c0.111-.417.194-0.883,0.29-1.355l0.014-.408a3.21,3.21,0,0,1,.387-1.355A0.078,0.078,0,0,0,5.9,20.736Zm20.349,9.159a3.959,3.959,0,0,1-.774.065c-0.275.054-.675,0.082-0.968,0.163-0.086.024-.258,0.005-0.359,0.033-0.173.047-.379-0.007-0.525,0.033h-0.29a1.013,1.013,0,0,0-.788.212,3.107,3.107,0,0,0,.042,1.388c0.035,0.159.013,0.366,0.041,0.506,0.077,0.382.032,0.818,0.083,1.241,0.009,0.074-.013.14,0,0.212a1.321,1.321,0,0,0,.111.571,0.833,0.833,0,0,0,.788.049l0.29-.016c0.155-.042.355-0.039,0.512-0.082h0.152c0.184-.065.44-0.041,0.65-0.1h0.359c0.26-.068.507,0.032,0.774-0.033,0.081-.02.207,0,0.332-0.033,0.1-.027.2-0.07,0.29-0.1a1.338,1.338,0,0,0,.042-0.947c-0.019-.108.015-0.273-0.014-0.424a7.681,7.681,0,0,1-.083-1.388,2.582,2.582,0,0,0-.124-1.208A0.643,0.643,0,0,0,26.248,29.895Zm3.442,0.294c-0.024.022-.072,0.027-0.1,0.049a0.861,0.861,0,0,0-.207.767c-0.013.087,0.014,0.322-.014,0.474-0.036.194,0.013,0.433-.028,0.653-0.071.385-.021,0.906-0.1,1.257a1.211,1.211,0,0,0,.055.783,1.021,1.021,0,0,0,.857.261h0.346c0.227,0.054.565,0,.816,0.065h0.359c0.154,0.038.422,0,.622,0.049a3.539,3.539,0,0,0,1.078.1,1.1,1.1,0,0,0,.221-0.31c0.095-.333-0.031-0.766.041-1.143,0.032-.166.007-0.363,0.041-0.539,0.038-.194.05-0.421,0.083-0.588q0.007-.22.014-0.441a1.556,1.556,0,0,0,.014-0.277,0.83,0.83,0,0,1,.028-0.212,0.7,0.7,0,0,0-.124-0.441,1.044,1.044,0,0,0-.567-0.212h-0.11a5.1,5.1,0,0,0-.705-0.18H32.041l-0.373-.016-0.111.016a3.76,3.76,0,0,0-.677-0.049H30.547A5.01,5.01,0,0,0,29.69,30.189Zm-0.249,5.632a0.634,0.634,0,0,0-.3.18,2.783,2.783,0,0,0-.1.882c-0.05.3,0.025,0.635-.028,1.012-0.024.169-.017,0.513-0.055,0.718v0.261a3.054,3.054,0,0,0-.055.816c0.016,0.06.054,0.121,0.069,0.2a0.98,0.98,0,0,0,.346.163h0.622c0.251,0.056.676,0,.968,0.081h0.249c0.188,0.05.325,0,.525,0.049,0.277,0.074.665,0.093,0.9,0.147a0.532,0.532,0,0,0,.65-0.2,1.43,1.43,0,0,0,.069-0.637,3.978,3.978,0,0,1,.041-0.653c0.013-.086-0.02-0.142,0-0.245,0.027-.14.015-0.308,0.041-0.457a7.233,7.233,0,0,0,.138-1.175,1.128,1.128,0,0,0-.083-0.6,1.69,1.69,0,0,0-.94-0.228c-0.39-.116-0.75-0.11-1.147-0.212L30.423,35.9A4.236,4.236,0,0,0,29.442,35.821Z"/>
</svg>
