<svg xmlns="http://www.w3.org/2000/svg" width="90" height="90" viewBox="0 0 60 60">
  <defs>
    <style>
      .cls-1 {
        fill: #b9b106;
        fill-rule: evenodd;
      }
    </style>
  </defs>
  <path id="new_vector_shape_done" class="cls-1" d="M30.635,7.035h17.2a9.578,9.578,0,0,1,1.93.029,6.564,6.564,0,0,1,1.76,1.387c0.46,0.349.876,0.688,1.334,1.04,0.117,0.09.193,0.258,0.312,0.347s0.269,0.137.4,0.231c0.17,0.125.288,0.335,0.454,0.462A12.133,12.133,0,0,1,55.273,11.6a3.557,3.557,0,0,0,.4.26l0.312,0.347a2.551,2.551,0,0,1,.908,1.011,1.967,1.967,0,0,1,.057.925V32.776a3.026,3.026,0,0,1,0,.636,1.529,1.529,0,0,1-.227.925,2.983,2.983,0,0,1-1.561.144H32.821c-0.544,0-1.291.051-1.589,0-0.508-.086-0.778.077-1.022-0.289a2.642,2.642,0,0,1-.17-1.329V8.392A2.219,2.219,0,0,1,30.1,7.41,1.472,1.472,0,0,1,30.635,7.035ZM36.4,11.513c-0.169.1-.473,0.01-0.625,0.116-0.663.216-.454,1.61-0.454,2.485v13.26a5.532,5.532,0,0,0,.17,2.311,1.073,1.073,0,0,0,.568.347h0.369a2.948,2.948,0,0,0,.738,0H47.95c1,0,2.9.174,3.406-.2,0.464-.346.284-1.456,0.284-2.2V17.175a6.521,6.521,0,0,0-.142-2.253,3.616,3.616,0,0,0-1.306-1.3c-0.149-.114-0.248-0.319-0.4-0.433-0.374-.286-0.7-0.561-1.079-0.838a3.51,3.51,0,0,0-1.107-.809H44.146C41.569,11.542,38.929,11.513,36.4,11.513Zm-10.02.087a0.993,0.993,0,0,1,.681.347,3.08,3.08,0,0,1,.085,1.387c0,1.126.3,2.547-.6,2.8l-1.164-.029H10.141a2.74,2.74,0,0,0-1.5.144,0.5,0.5,0,0,0-.085.144,1.3,1.3,0,0,0-.227.462v0.636a10.234,10.234,0,0,0,0,1.242V36.589a9.735,9.735,0,0,0,0,.982,0.8,0.8,0,0,1-.028.26,1.917,1.917,0,0,0,.113.867,1.319,1.319,0,0,0,.369.4,4.4,4.4,0,0,1,.681.115l0.766-.058H49.539l1.135,0.058c0.242-.06.492-0.172,0.71-0.231a2.46,2.46,0,0,0,.256-0.607c0.106-.481-0.111-0.993.2-1.242a2.139,2.139,0,0,1,1.334-.231h2.441a1.393,1.393,0,0,1,1.277.347,4.136,4.136,0,0,1,.057,1.531v2.253a6.613,6.613,0,0,0,.028,1.156,4.228,4.228,0,0,1,0,.491,1.041,1.041,0,0,1-.312.925,2.367,2.367,0,0,1-1.192.115H39.661a3.546,3.546,0,0,0-.993-0.029,1.2,1.2,0,0,0-.4.375,2.159,2.159,0,0,0,.6,1.56,6.135,6.135,0,0,0,1.7,1.618c0.136,0.1.282,0.265,0.426,0.347,0.2,0.113.447,0.107,0.653,0.2a6.813,6.813,0,0,0,1.022.491h0.255c0.468,0.108,1,.067,1.419.144,0.584,0.109,1-.2,1.448.115,0.564,0.393.111,2.341,0.284,3.149a1.847,1.847,0,0,1-.057.838c-0.239.577-1.117,0.4-1.873,0.4H17.294a10.45,10.45,0,0,1-1.646-.029,2.049,2.049,0,0,0-.539.058,1.265,1.265,0,0,1-1.05-.26,1.354,1.354,0,0,1-.17-0.982,8.118,8.118,0,0,0,.028-1.473V49.647a1.469,1.469,0,0,1,.085-0.9c0.3-.477.816-0.3,1.419-0.318a8.457,8.457,0,0,0,1.59-.144h0.284a4.782,4.782,0,0,0,.908-0.433c0.248-.131.576-0.14,0.823-0.289,0.425-.257.817-0.625,1.221-0.924A5.131,5.131,0,0,0,21.353,45.2c0.073-.127.223-0.267,0.284-0.4a0.8,0.8,0,0,0-.2-1.011,2.308,2.308,0,0,0-1.249-.058H5.117a9,9,0,0,1-1.76-.087,2.244,2.244,0,0,1-.227-0.289A6.266,6.266,0,0,1,3.074,41.3V15.268a14.461,14.461,0,0,0-.028-1.907,1.739,1.739,0,0,1,.4-1.676,6.937,6.937,0,0,1,1.589-.029H24.816A5.489,5.489,0,0,0,26.377,11.6Zm5.138,32.1a3.912,3.912,0,0,1-1.022.029H28.535l-0.908.029c-0.621.165-.533,0.814-0.71,1.445a7.7,7.7,0,0,1-.965,1.993,1.069,1.069,0,0,0-.255.9,0.737,0.737,0,0,0,.284.318c1.637,0.024,3.515.029,5.279,0.029l2.271,0.029a3.172,3.172,0,0,1,.483-0.058,0.48,0.48,0,0,1,.142-0.087l0.142-.2a1.79,1.79,0,0,0-.454-1.127,7.385,7.385,0,0,1-.795-1.82,2.033,2.033,0,0,0-.483-1.3A2.243,2.243,0,0,0,31.515,43.7Z"/>
</svg>
